<svg width="24" height="24" viewBox="0 0 24 24" fill="none" xmlns="http://www.w3.org/2000/svg">
<g clip-path="url(#clip0_2140_43)">
<path d="M12 0C9.62663 0 7.30655 0.703788 5.33316 2.02236C3.35977 3.34094 1.8217 5.21509 0.913451 7.4078C0.00519943 9.60051 -0.232441 12.0133 0.230582 14.3411C0.693605 16.6689 1.83649 18.8071 3.51472 20.4853C5.19295 22.1635 7.33115 23.3064 9.65892 23.7694C11.9867 24.2324 14.3995 23.9948 16.5922 23.0866C18.7849 22.1783 20.6591 20.6402 21.9776 18.6668C23.2962 16.6935 24 14.3734 24 12C23.9966 8.81846 22.7312 5.76821 20.4815 3.51852C18.2318 1.26883 15.1815 0.00344108 12 0V0ZM12 21C10.22 21 8.47992 20.4722 6.99987 19.4832C5.51983 18.4943 4.36628 17.0887 3.68509 15.4442C3.0039 13.7996 2.82567 11.99 3.17294 10.2442C3.5202 8.49836 4.37737 6.89471 5.63604 5.63604C6.89472 4.37737 8.49836 3.5202 10.2442 3.17293C11.99 2.82567 13.7996 3.0039 15.4442 3.68508C17.0887 4.36627 18.4943 5.51983 19.4832 6.99987C20.4722 8.47991 21 10.22 21 12C20.9974 14.3861 20.0483 16.6738 18.361 18.361C16.6738 20.0483 14.3861 20.9974 12 21V21Z" fill="#EF6D6D"/>
</g>
<path d="M13.2373 11.9998L15.5 9.73473C15.647 9.56776 15.7248 9.35111 15.7177 9.12882C15.7106 8.90653 15.6191 8.69528 15.4618 8.53802C15.3046 8.38076 15.0933 8.28928 14.871 8.28219C14.6488 8.27509 14.4321 8.3529 14.2651 8.49981L12 10.7626L9.73088 8.49281C9.6496 8.41154 9.55311 8.34706 9.44692 8.30308C9.34072 8.25909 9.2269 8.23645 9.11196 8.23645C8.99702 8.23645 8.8832 8.25909 8.77701 8.30308C8.67081 8.34706 8.57432 8.41154 8.49304 8.49281C8.41177 8.57409 8.3473 8.67058 8.30331 8.77678C8.25932 8.88297 8.23668 8.99679 8.23668 9.11173C8.23668 9.22667 8.25932 9.34049 8.30331 9.44669C8.3473 9.55288 8.41177 9.64937 8.49304 9.73065L10.7628 11.9998L8.50004 14.2643C8.4113 14.3436 8.33968 14.4402 8.28956 14.5482C8.23943 14.6562 8.21186 14.7732 8.20853 14.8922C8.2052 15.0112 8.22618 15.1296 8.27019 15.2402C8.3142 15.3508 8.38031 15.4512 8.46447 15.5354C8.54864 15.6196 8.64909 15.6857 8.75968 15.7297C8.87028 15.7737 8.98869 15.7947 9.10767 15.7913C9.22665 15.788 9.3437 15.7604 9.45166 15.7103C9.55962 15.6602 9.65622 15.5886 9.73555 15.4998L12 13.2371L14.2622 15.4998C14.4264 15.664 14.649 15.7562 14.8811 15.7562C15.1133 15.7562 15.3359 15.664 15.5 15.4998C15.6642 15.3357 15.7564 15.113 15.7564 14.8809C15.7564 14.6488 15.6642 14.4261 15.5 14.262L13.2373 11.9998Z" fill="#EF6D6D"/>
<defs>
<clipPath id="clip0_2140_43">
<rect width="24" height="24" fill="white"/>
</clipPath>
</defs>
</svg>
