<svg width="24" height="24" viewBox="0 0 24 24" fill="none" xmlns="http://www.w3.org/2000/svg">
<g clip-path="url(#clip0_2141_52)">
<path d="M12 0C9.62663 0 7.30655 0.703788 5.33316 2.02236C3.35977 3.34094 1.8217 5.21509 0.913451 7.4078C0.00519943 9.60051 -0.232441 12.0133 0.230582 14.3411C0.693605 16.6689 1.83649 18.8071 3.51472 20.4853C5.19295 22.1635 7.33115 23.3064 9.65892 23.7694C11.9867 24.2324 14.3995 23.9948 16.5922 23.0866C18.7849 22.1783 20.6591 20.6402 21.9776 18.6668C23.2962 16.6935 24 14.3734 24 12C23.9966 8.81846 22.7312 5.76821 20.4815 3.51852C18.2318 1.26883 15.1815 0.00344108 12 0V0ZM12 21C10.22 21 8.47992 20.4722 6.99987 19.4832C5.51983 18.4943 4.36628 17.0887 3.68509 15.4442C3.0039 13.7996 2.82567 11.99 3.17294 10.2442C3.5202 8.49836 4.37737 6.89471 5.63604 5.63604C6.89472 4.37737 8.49836 3.5202 10.2442 3.17293C11.99 2.82567 13.7996 3.0039 15.4442 3.68508C17.0887 4.36627 18.4943 5.51983 19.4832 6.99987C20.4722 8.47991 21 10.22 21 12C20.9974 14.3861 20.0483 16.6738 18.361 18.361C16.6738 20.0483 14.3861 20.9974 12 21V21Z" fill="#3B8686"/>
</g>
<path d="M10.7144 16.1428C10.6018 16.1428 10.4903 16.1207 10.3863 16.0776C10.2823 16.0346 10.1877 15.9715 10.1081 15.8919L7.25112 13.0349C7.09033 12.8741 7 12.6561 7 12.4287C7 12.2013 7.09033 11.9832 7.25112 11.8224C7.41191 11.6616 7.62998 11.5713 7.85737 11.5713C8.08476 11.5713 8.30283 11.6616 8.46362 11.8224L10.7144 14.0737L15.5364 9.25112C15.6972 9.09033 15.9152 9 16.1426 9C16.37 9 16.5881 9.09033 16.7489 9.25112C16.9097 9.41191 17 9.62998 17 9.85737C17 10.0848 16.9097 10.3028 16.7489 10.4636L11.3206 15.8919C11.241 15.9715 11.1465 16.0346 11.0424 16.0776C10.9384 16.1207 10.8269 16.1428 10.7144 16.1428Z" fill="#3B8686"/>
<defs>
<clipPath id="clip0_2141_52">
<rect width="24" height="24" fill="white"/>
</clipPath>
</defs>
</svg>
