<svg width="24" height="24" viewBox="0 0 24 24" fill="none" xmlns="http://www.w3.org/2000/svg">
<g clip-path="url(#clip0_405_1623)">
<path d="M12 0C9.62663 0 7.30655 0.703788 5.33316 2.02236C3.35977 3.34094 1.8217 5.21509 0.913451 7.4078C0.00519943 9.60051 -0.232441 12.0133 0.230582 14.3411C0.693605 16.6689 1.83649 18.8071 3.51472 20.4853C5.19295 22.1635 7.33115 23.3064 9.65892 23.7694C11.9867 24.2324 14.3995 23.9948 16.5922 23.0866C18.7849 22.1783 20.6591 20.6402 21.9776 18.6668C23.2962 16.6935 24 14.3734 24 12C23.9966 8.81846 22.7312 5.76821 20.4815 3.51852C18.2318 1.26883 15.1815 0.00344108 12 0V0ZM12 21C10.22 21 8.47992 20.4722 6.99987 19.4832C5.51983 18.4943 4.36628 17.0887 3.68509 15.4442C3.0039 13.7996 2.82567 11.99 3.17294 10.2442C3.5202 8.49836 4.37737 6.89471 5.63604 5.63604C6.89472 4.37737 8.49836 3.5202 10.2442 3.17293C11.99 2.82567 13.7996 3.0039 15.4442 3.68508C17.0887 4.36627 18.4943 5.51983 19.4832 6.99987C20.4722 8.47991 21 10.22 21 12C20.9974 14.3861 20.0483 16.6738 18.361 18.361C16.6738 20.0483 14.3861 20.9974 12 21V21Z" fill="#FFB55E"/>
<path d="M10.5 11.055L8.09995 12.555C7.93294 12.6595 7.78816 12.796 7.6739 12.9565C7.55963 13.117 7.47811 13.2985 7.434 13.4906C7.38989 13.6826 7.38405 13.8814 7.41682 14.0758C7.44958 14.2701 7.5203 14.456 7.62495 14.623V14.623C7.72952 14.79 7.86596 14.9347 8.02649 15.049C8.18702 15.1633 8.3685 15.2448 8.56054 15.2889C8.75259 15.333 8.95144 15.3389 9.14574 15.3061C9.34005 15.2733 9.52599 15.2026 9.69295 15.098L12.562 13.298C12.8498 13.1176 13.087 12.8669 13.2511 12.5694C13.4152 12.272 13.5008 11.9377 13.5 11.598V7.77197C13.5 7.37415 13.3419 6.99262 13.0606 6.71131C12.7793 6.43001 12.3978 6.27197 12 6.27197V6.27197C11.6021 6.27197 11.2206 6.43001 10.9393 6.71131C10.658 6.99262 10.5 7.37415 10.5 7.77197V11.055Z" fill="#FFB55E"/>
</g>
<defs>
<clipPath id="clip0_405_1623">
<rect width="24" height="24" fill="white"/>
</clipPath>
</defs>
</svg>
