<svg width="290" height="52" viewBox="0 0 290 52" fill="none" xmlns="http://www.w3.org/2000/svg">
<path fill-rule="evenodd" clip-rule="evenodd" d="M12.5928 0.00232232C20.5826 -0.0865543 26.1676 2.37236 28.542 7.93713C28.9963 9.00204 29.2443 10.1752 29.491 11.4958C29.592 12.0375 29.5178 12.5779 29.6096 13.1645C29.6914 13.6893 29.6766 14.6192 29.5926 15.1398C29.4338 16.1251 29.4566 17.1031 29.2707 18.0344C28.8831 19.977 28.518 21.7964 27.8639 23.4492C25.8373 28.5696 22.1353 33.2111 16.7453 34.9258C15.9232 35.1874 15.0558 35.3357 14.1182 35.5048C13.6322 35.5389 13.1463 35.5731 12.6604 35.607C12.0265 35.7112 11.2303 35.5864 10.6942 35.4877C9.08704 35.1912 7.73388 34.8992 6.44011 34.347C6.02039 34.1678 5.15334 33.8929 4.93178 33.5465C4.66743 33.1339 4.796 32.1202 4.796 31.486C4.8242 30.2943 4.85239 29.1021 4.88059 27.9106C4.90358 27.36 4.92598 26.8092 4.94858 26.2588C4.97117 25.7479 4.99357 25.237 5.01636 24.7261C5.14034 23.3928 5.26472 22.0586 5.3891 20.7249C5.61206 19.4685 5.68245 18.1862 5.9484 16.979C6.72626 13.4475 7.73028 10.1397 9.57556 7.68178C9.8703 7.2894 10.4528 7.26924 11.0503 7.1709C12.6646 6.90427 13.8858 7.37243 14.4569 8.32871C14.09 9.01312 13.5668 9.62175 13.2367 10.3721C12.6668 11.6671 12.2277 13.043 11.7958 14.4928C11.5192 15.4221 11.438 16.3933 11.2365 17.4046C10.7244 19.9758 10.621 22.8166 10.1349 25.4418C9.9075 26.6695 9.84691 27.9521 9.84671 29.3411C9.84671 30.0793 9.81911 30.8854 10.1179 31.3332C10.3546 31.6879 10.7767 31.7571 11.2875 31.8441C11.9417 31.9554 12.734 31.8193 13.2537 31.7077C15.0526 31.3222 16.3376 30.6795 17.5927 29.7836C21.1855 27.2187 23.0922 23.2295 24.3385 18.2899C24.895 16.0844 25.1268 13.0253 24.4233 10.7808C23.9958 9.41619 23.2643 8.41235 22.4741 7.42624C22.1897 7.07114 21.7752 6.7781 21.4063 6.50664C20.1899 5.61102 18.7947 5.06345 17.0164 4.7015C16.3118 4.55841 14.8408 4.42862 14.0164 4.56546C13.4063 4.59952 12.796 4.63358 12.1859 4.66764C10.8719 4.89477 9.64274 5.04451 8.52494 5.39961C7.22177 5.81397 5.88201 6.37887 5.11795 7.34099C4.67682 7.89682 4.31649 8.53931 3.93176 9.14593C3.39965 9.98351 2.79016 10.7943 2.18586 11.5639C1.93591 11.882 1.19884 12.7627 0.575949 12.4323C0.0950343 12.1774 0.137027 11.5188 0.0336451 10.8658C-0.0211452 10.5202 -0.00434813 10.021 0.0504422 9.69088C0.0842362 9.32187 0.11823 8.95306 0.152224 8.58426C0.2898 7.89461 0.448772 7.24163 0.677331 6.66001C2.04189 3.18858 4.73381 1.44611 8.57553 0.462022C9.40859 0.248597 10.3092 0.224212 11.2197 0.0704409C11.6772 0.047466 12.1351 0.0248942 12.5928 0.00232232Z" fill="white"/>
<path fill-rule="evenodd" clip-rule="evenodd" d="M69.6593 5.92695C71.9195 5.89209 73.6952 7.03519 73.1171 9.50277C73.0415 9.82563 72.9467 10.1765 72.7949 10.4393C72.071 11.6935 70.3202 12.6171 68.2357 12.0909C66.3045 11.6034 65.373 9.2569 66.6766 7.40823C67.1129 6.78932 67.7836 6.32176 68.5917 6.08012C68.9026 5.98741 69.3297 6.05493 69.6593 5.92695Z" fill="white"/>
<path fill-rule="evenodd" clip-rule="evenodd" d="M109.083 27.8416C108.812 27.989 108.54 28.1369 108.269 28.2842C107.684 28.7016 107.166 29.1897 106.32 29.357C105.06 29.6059 104.751 27.0256 104.964 25.7471C105.01 25.2818 105.055 24.8162 105.1 24.3509C105.331 22.8299 105.563 21.3083 105.795 19.7873C106.173 18.0743 106.409 16.361 105.405 15.1049C104.627 14.1321 102.62 14.5928 101.812 15.2071C101.069 15.7722 100.702 16.7097 100.219 17.5398C99.75 18.4193 99.2811 19.2992 98.8121 20.1789C98.5804 20.775 98.349 21.3434 98.1173 21.9393C97.9137 22.3305 97.7103 22.6836 97.507 23.0866C97.3828 23.0866 97.2586 23.0866 97.1344 23.0866C97.202 22.6836 97.2698 21.9333 97.3376 21.3434C97.3944 20.9006 97.4504 20.4717 97.507 20.029C97.8747 18.0769 98.7014 14.0331 95.6765 14.5359C95.4507 14.5926 95.2246 14.653 94.9986 14.7097C94.4509 14.9447 93.9986 15.4602 93.7612 16.0057C93.5231 16.5527 93.4597 17.2059 93.3035 17.8453C92.9522 19.2865 92.81 20.8464 92.541 22.3922C92.4731 23.0224 92.4055 23.6525 92.3375 24.2827C91.863 25.0091 91.3883 25.7358 90.9135 26.4621C89.6312 28.3977 87.8317 30.83 85.7275 31.8943C85.8404 30.6627 85.9532 29.4305 86.0664 28.1992C86.2234 27.2433 86.141 26.2697 86.3205 25.3724C86.5563 24.1971 86.8341 23.1679 87.0832 22.0348C87.134 21.5753 87.185 21.1154 87.2358 20.6557C87.2474 20.2019 87.2586 19.7474 87.2698 19.2936C87.4448 18.2307 87.2414 16.5422 86.7103 16.1265C86.0418 15.6027 84.8438 16.0722 84.0152 15.7518C83.0983 15.3969 83.2163 14.594 81.9815 14.3723C80.2984 14.0706 78.4827 15.3308 77.6253 15.99C75.1909 17.8627 74.0969 20.3153 72.8797 23.4141C72.3348 24.8017 71.7693 26.2024 71.8121 28.1478C70.9541 28.7137 70.2168 29.4297 69.1848 29.8334C68.8566 29.962 68.1698 30.0942 67.8288 29.8848C67.1705 29.4793 67.2657 27.6649 67.4561 26.7687C67.6311 26.0024 67.8064 25.236 67.9814 24.47C68.1288 23.7821 68.1856 23.1288 68.3715 22.4945C68.7499 21.2291 69.1284 19.9631 69.5067 18.6974C69.7499 17.8212 70.6659 15.2246 69.6593 14.7129C68.5565 14.1524 66.5365 14.9759 65.9138 15.4453C65.0695 16.0815 65.0109 17.5394 64.6764 18.6805C64.3262 19.9405 63.9759 21.2009 63.6256 22.4609C63.355 23.34 63.1639 24.2517 62.9477 25.2531C62.8685 25.6844 62.7893 26.1159 62.7101 26.5474C62.1324 26.9182 61.459 27.1973 60.8119 27.4837C59.8958 27.8898 59.0124 28.3924 58.1845 28.8801C58.2075 28.1818 58.2299 27.4837 58.2525 26.7856C58.3723 26.0637 58.4063 25.0375 58.2355 24.3507C57.9814 23.3857 57.7272 22.4206 57.4727 21.456C57.4093 21.1872 57.2329 20.433 57.3371 20.0765C57.4409 19.7226 57.8368 19.4576 58.049 19.1912C58.6782 18.4022 59.6047 17.6414 59.8116 16.4664C59.8004 16.2963 59.7892 16.126 59.778 15.9558C59.5735 14.7387 58.7932 14.6585 57.5744 14.4573C56.9991 14.3622 56.4422 14.5744 56.0829 14.7298C54.7631 15.3002 54.0151 16.5928 53.2018 17.6756C50.3655 21.4516 47.8912 25.3116 43.7271 27.7731C42.5869 28.4473 41.3569 28.9198 39.8798 29.2544C39.3021 29.3852 38.3704 29.4279 37.8457 29.2205C37.1593 28.9487 36.6797 28.2894 36.3542 27.6542C39.99 26.7261 43.5071 23.9885 44.4392 20.3833C44.6881 19.4203 44.5056 18.216 44.2018 17.4715C43.3992 15.5023 40.9696 13.9029 37.9985 14.6621C37.0951 14.8929 36.325 15.2768 35.6593 15.7518C33.101 17.5781 31.8834 21.007 31.2187 24.7251C30.9767 26.0784 31.3701 27.7276 31.6762 28.7096C32.3975 31.0231 33.9034 32.72 36.2016 33.4435C36.6435 33.5825 37.1265 33.6299 37.6256 33.7162C37.8119 33.7218 37.9985 33.7276 38.1849 33.7331C38.8598 33.8484 39.721 33.7115 40.3037 33.5799C42.8418 33.0072 44.6599 31.9257 46.5068 30.7022C46.613 31.3677 46.9309 31.8391 47.2695 32.2685C49.3559 34.9169 55.2247 33.7853 58.2525 32.8304C58.9176 32.621 59.5425 32.3999 60.151 32.1492C60.9612 31.8157 61.7117 31.4678 62.4728 31.1107C62.6869 33.0104 64.4932 34.1063 66.8116 33.6988C68.4345 33.4139 69.8725 32.8838 71.1 32.1664C71.6312 31.8487 72.1621 31.5307 72.6934 31.2131C72.7048 31.2016 72.7158 31.1903 72.727 31.179C73.5332 32.6843 75.8908 34.3758 78.3544 33.5969C79.2004 33.3292 79.9045 32.8885 80.5408 32.4048C80.7893 32.1895 81.0381 31.9735 81.2866 31.7579C81.1623 32.5128 81.0381 33.2677 80.9137 34.0225C80.62 34.2778 80.3262 34.5334 80.0325 34.7889C79.5635 35.2656 79.0946 35.7422 78.6255 36.2192C78.3376 36.5197 78.0492 36.8206 77.7611 37.1219C77.1624 37.8083 76.5635 38.4953 75.9646 39.1822C75.1875 40.2156 74.5602 41.3184 73.88 42.4688C73.5596 43.0103 73.2085 43.5589 72.9479 44.1542C72.693 44.7371 72.488 45.3594 72.3376 46.0444C71.8289 48.3611 72.8387 50.2315 74.2021 51.0334C74.7154 51.3353 75.3361 51.5179 75.9986 51.6636C77.5139 51.9963 79.1676 51.5959 80.1684 51.0846C82.9285 49.6743 83.9688 46.6329 84.6259 43.0986C84.8124 41.4982 84.9986 39.8972 85.1852 38.2968C85.3147 37.562 85.3189 36.8287 85.5749 36.2363C85.899 35.4856 87.5617 34.6184 88.2868 34.1587C89.7083 33.2585 90.8428 32.0894 91.9819 30.9066C92.0495 31.2756 92.1175 31.6446 92.1851 32.0134C92.5087 33.0493 93.3971 34.089 94.9308 33.6988C95.1928 33.6325 95.4641 33.5187 95.6599 33.3756C96.3586 32.8645 97.0363 31.0817 97.4734 30.2205C98.8009 27.5704 100.129 24.9009 101.456 22.2809C101.552 22.2809 101.648 22.2809 101.745 22.2809C101.62 23.2886 101.496 24.1076 101.371 25.0272C101.017 27.0293 101.148 29.9787 101.711 31.5938C101.991 32.3979 102.375 33.2863 103.117 33.6172C103.778 33.9112 104.905 33.6853 105.524 33.4965C107.294 32.9572 108.895 31.8552 110.436 31.1148L110.453 26.8914C110.063 27.1411 109.473 27.5919 109.083 27.8416ZM35.8963 24.4704C35.9017 22.3218 36.8791 19.6267 38.1335 18.7829C38.5122 18.5281 39.7298 17.965 40.3371 18.4084C41.0428 18.9237 41.1317 20.4145 40.659 21.2178C39.876 22.5491 37.9587 24.4841 35.8963 24.4704ZM52.1336 30.6855C51.7915 30.7796 51.1928 30.8239 50.8114 30.7193C50.1486 30.5384 49.8918 30.0728 49.4049 29.8338C49.1391 29.5615 48.8736 29.2889 48.6084 29.0166C49.0891 28.6607 49.5897 28.1713 49.9644 27.7052C50.0942 27.5692 50.2241 27.4329 50.3541 27.2969C50.3147 27.2511 50.2749 27.206 50.2355 27.1605C50.1847 27.1095 50.1338 27.0581 50.083 27.0073C51.2524 25.7699 52.422 24.5324 53.5913 23.295C53.6419 23.4538 53.6929 23.613 53.7439 23.7719C53.8545 24.1332 53.9627 24.6602 53.8795 25.1681C53.8241 25.5077 53.7471 25.9871 53.8119 26.3942C54.1426 28.4761 53.7901 30.2286 52.1336 30.6855ZM80.8795 39.5054C80.7889 40.2207 80.6983 40.9359 80.6084 41.651C80.249 43.6659 79.6303 45.9062 78.5743 47.2363C78.248 47.6472 77.3267 48.2992 76.4555 47.9513C75.5231 47.5785 76.3949 45.6847 76.6251 45.125C77.3675 43.3203 78.3212 41.6441 79.4386 40.2038C79.7437 39.8746 80.0491 39.5455 80.354 39.2162C80.546 39.0574 80.7383 38.8984 80.9303 38.7396C81.0011 38.8345 80.9113 39.3289 80.8795 39.5054ZM81.2862 24.6209C81.2522 25.0012 81.2182 25.3489 81.1845 25.7292C81.0019 26.6238 80.7581 27.4124 80.4386 28.1478C80.1105 28.9021 79.2064 30.49 77.9132 29.9614C76.6715 29.4539 76.4109 26.8993 76.8624 25.2404C77.1906 24.0349 77.7965 22.9591 78.371 21.9693C79.1126 20.6916 79.7453 19.4058 80.9807 18.6309C81.2483 18.463 81.5698 18.3838 81.8961 18.2871C82.0829 18.253 82.2691 18.2502 82.4554 18.2502C82.5516 18.2502 82.6476 18.2502 82.7436 18.2502C82.2579 20.2656 81.772 22.4756 81.2862 24.6209Z" fill="white"/>
<path fill-rule="evenodd" clip-rule="evenodd" d="M183.453 16.654C183.453 20.6948 183.453 24.7368 183.453 28.7775C185.089 28.787 187.406 28.9553 188.724 28.5903C190.881 27.993 192.241 26.5959 192.876 24.4697C193.013 24.0127 192.994 23.5634 193.08 23.0221C193.213 22.1817 193.009 21.2125 192.809 20.57C192.526 19.6617 192.062 18.9936 191.538 18.3397C191.343 18.0962 191.049 17.9096 190.792 17.7266C188.965 16.4281 186.531 16.6502 183.453 16.654ZM251.758 26.6149C251.827 30.8328 249.239 32.94 245.944 33.8006C241.957 34.8421 237.277 33.746 234.741 32.149C234.078 31.7318 233.279 31.2614 232.809 30.6504C233.808 29.2201 234.809 27.7898 235.809 26.3595C235.888 26.4389 235.967 26.5185 236.046 26.5979C236.216 26.7455 236.385 26.8932 236.554 27.0407C236.979 27.3358 237.402 27.631 237.826 27.9262C238.72 28.4647 239.763 28.8402 240.928 29.101C241.402 29.1576 241.876 29.2145 242.351 29.2715C243.852 29.5174 246.215 28.739 245.962 27.3303C245.755 26.1846 244.253 26.004 243.165 25.7297C240.365 25.024 237.724 24.7136 235.741 23.2095C233.988 21.8796 232.777 18.9241 233.911 16.0412C234.563 14.3819 235.742 13.3021 237.199 12.4482C238.086 11.9283 239.187 11.6765 240.352 11.4436C240.911 11.398 241.47 11.3527 242.03 11.3073C245.028 11.2578 247.466 11.9623 249.334 13.078C249.931 13.4343 250.802 13.8829 251.216 14.4061C251.216 14.418 251.216 14.4291 251.216 14.4404C250.187 15.7913 249.159 17.1423 248.131 18.493C248.007 18.3965 247.883 18.3 247.758 18.2032C247.408 17.9763 247.058 17.7492 246.707 17.522C246.36 17.3173 245.994 17.1718 245.606 17.0116C244.129 16.4021 239.711 15.2483 239.318 17.6413C239.226 18.2036 239.616 18.488 239.911 18.6801C240.758 19.2325 241.964 19.4034 243.08 19.6847C245.99 20.4181 248.911 20.9509 250.504 22.9881C250.855 23.4377 251.161 23.9451 251.385 24.5205C251.459 24.7702 251.532 25.0203 251.606 25.27C251.612 25.27 251.617 25.27 251.623 25.27L251.758 26.6149ZM131.3 11.6477C133.226 11.6534 135.153 11.6592 137.08 11.6648C137.08 14.735 137.08 17.8064 137.08 20.8768C137.08 21.8756 137.08 22.8748 137.08 23.8736C137.08 24.475 137.041 25.1144 137.148 25.6273C137.577 27.6888 138.753 28.6749 140.876 29.05C141.384 29.1397 142.159 29.1496 142.673 29.05C144.429 28.7098 145.481 27.8734 146.063 26.3595C146.436 25.3883 146.317 23.8486 146.317 22.5282C146.317 20.0878 146.317 17.6466 146.317 15.2062C146.323 14.0202 146.328 12.8337 146.334 11.6475C148.249 11.6532 150.165 11.659 152.079 11.6646C152.079 15.0299 152.079 18.3963 152.079 21.7621C152.08 24.0401 152.158 26.3873 151.622 28.0963C150.784 30.7713 148.992 32.4374 146.469 33.4261C145.393 33.8483 144.204 33.9183 142.876 34.1414C142.594 34.1468 142.311 34.1526 142.029 34.1583C141.101 34.3068 139.541 34.0739 138.775 33.9027C134.787 33.0144 132.412 31.0458 131.487 27.0915C131.25 26.0798 131.283 24.8553 131.283 23.618C131.283 22.0856 131.283 20.5529 131.283 19.0207C131.289 16.5631 131.294 14.1052 131.3 11.6477ZM154.944 11.6477C156.362 11.6477 157.781 11.6477 159.198 11.6477C159.598 11.6477 160.6 11.5572 160.842 11.7158C163.78 15.7397 166.718 19.7647 169.656 23.7885C169.662 23.7885 169.668 23.7885 169.673 23.7885C169.678 19.7419 169.684 15.6943 169.689 11.6477C171.594 11.6534 173.498 11.6592 175.402 11.6648C175.396 19.037 175.39 26.4115 175.385 33.7838C174.091 33.7838 172.797 33.7838 171.503 33.7838C171.104 33.7838 170.172 33.8828 169.876 33.7498C166.797 29.5047 163.718 25.2581 160.639 21.013C160.633 21.013 160.628 21.013 160.622 21.013C160.616 25.2696 160.61 29.5272 160.605 33.7838C158.713 33.7782 156.82 33.7724 154.927 33.7667C154.933 26.3946 154.938 19.0202 154.944 11.6477ZM177.775 11.6477C180.187 11.6477 182.6 11.6477 185.012 11.6477C186.974 11.6475 188.892 11.6227 190.452 12.0224C194.368 13.0246 196.906 15.1451 198.283 18.6972C198.609 19.5386 198.704 20.4779 198.876 21.4896C198.95 21.9203 198.981 22.5384 198.91 22.9709C198.821 23.5126 198.902 24.0084 198.808 24.5036C198.588 25.6795 198.305 26.682 197.893 27.6195C196.446 30.9166 193.551 32.7758 189.605 33.5791C187.999 33.9064 185.957 33.7836 184.08 33.7836C181.973 33.778 179.865 33.7722 177.758 33.7665C177.763 26.3946 177.769 19.0202 177.775 11.6477ZM205.961 28.7775C208.91 28.7834 211.86 28.789 214.809 28.7947C214.803 30.4575 214.797 32.1208 214.792 33.7838C209.95 33.7782 205.107 33.7724 200.266 33.7667C200.272 26.3946 200.278 19.0202 200.283 11.6477C202.176 11.6534 204.069 11.6592 205.961 11.6648C205.961 17.3687 205.961 23.0741 205.961 28.7775ZM222.029 16.654C222.029 17.7891 222.029 18.9245 222.029 20.0596C225.435 20.065 228.843 20.0708 232.249 20.0763C232.244 21.7393 232.238 23.4026 232.232 25.0655C228.832 25.0655 225.43 25.0655 222.029 25.0655C222.029 26.3029 222.029 27.5403 222.029 28.7775C225.515 28.7834 229.001 28.789 232.487 28.7947C232.481 30.4575 232.475 32.1208 232.47 33.7838C227.092 33.7782 221.712 33.7724 216.334 33.7667C216.34 26.3946 216.346 19.0202 216.351 11.6477C221.729 11.6534 227.109 11.6592 232.487 11.6648C232.481 13.3275 232.475 14.991 232.47 16.654C228.99 16.654 225.509 16.654 222.029 16.654ZM110.336 11.547C113.245 11.547 116.156 11.547 119.064 11.547C123.505 11.5467 126.331 11.3412 128.217 14.0159C129.339 15.6077 129.628 18.2522 128.488 20.0948C128.053 20.7976 127.457 21.376 126.742 21.7976C126.457 21.9659 125.773 22.0985 125.556 22.2744C126.316 22.3026 126.993 22.7575 127.471 23.1088C128.941 24.1888 130.259 26.6792 129.471 29.341C129.244 30.1062 128.94 30.7778 128.522 31.3503C127.75 32.407 126.571 33.1095 125.115 33.4787C124.071 33.7435 122.713 33.6833 121.42 33.6833C119.454 33.6833 117.488 33.6833 115.522 33.6833C113.787 33.6776 112.053 33.6718 110.318 33.6661L110.336 11.547ZM116.014 16.5843C116.014 17.7987 116.014 19.0138 116.014 20.2284C117.476 20.2284 118.94 20.2284 120.403 20.2284C121.518 20.2284 122.383 20.2474 122.929 19.7004C123.231 19.3979 123.562 18.8362 123.437 18.1341C123.323 17.4904 122.976 17.0031 122.454 16.7717C121.904 16.5279 121.016 16.5843 120.217 16.5843C118.816 16.5843 117.415 16.5843 116.014 16.5843ZM116.014 25.0981C116.014 26.4147 116.014 27.732 116.014 29.0488C117.493 29.0488 118.974 29.0488 120.454 29.0488C121.738 29.049 122.591 29.0949 123.301 28.5208C123.635 28.2517 123.991 27.5693 123.878 26.8863C123.742 26.0681 123.367 25.553 122.708 25.2688C122.15 25.028 121.228 25.0983 120.437 25.0983C118.963 25.0981 117.488 25.0981 116.014 25.0981Z" fill="white"/>
<path fill-rule="evenodd" clip-rule="evenodd" d="M259.832 16.4765C260.516 16.4701 262.218 16.3012 262.721 16.5313C264.12 18.4633 265.519 20.3952 266.918 22.3271C266.936 22.3271 266.954 22.3271 266.972 22.3271C266.972 20.377 266.972 18.4266 266.972 16.4765C267.89 16.4765 268.807 16.4765 269.725 16.4765C269.725 20.0469 269.725 23.6183 269.725 27.1887C269.308 27.1949 267.225 27.2854 267.054 27.1337C265.565 25.1014 264.074 23.0683 262.585 21.036C262.585 23.0869 262.585 25.1381 262.585 27.1887C261.667 27.1887 260.749 27.1887 259.832 27.1887C259.832 23.6181 259.832 20.0469 259.832 16.4765Z" fill="white"/>
<path fill-rule="evenodd" clip-rule="evenodd" d="M272.069 16.4766C274.667 16.4766 277.266 16.4766 279.864 16.4766C279.864 17.2822 279.864 18.0883 279.864 18.8936C278.183 18.8936 276.502 18.8936 274.822 18.8936C274.822 19.4432 274.822 19.9926 274.822 20.5418C276.466 20.5418 278.11 20.5418 279.755 20.5418C279.755 21.3475 279.755 22.1532 279.755 22.959C278.11 22.959 276.466 22.959 274.822 22.959C274.822 23.5632 274.822 24.1674 274.822 24.7716C276.502 24.7716 278.183 24.7716 279.864 24.7716C279.864 25.5773 279.864 26.383 279.864 27.1888C277.266 27.1888 274.667 27.1888 272.069 27.1888C272.069 23.6182 272.069 20.047 272.069 16.4766Z" fill="white"/>
<path fill-rule="evenodd" clip-rule="evenodd" d="M281.307 16.4766C284.204 16.4766 287.103 16.4766 290 16.4766C290 17.2822 290 18.0883 290 18.8936C289.01 18.8936 288.02 18.8936 287.03 18.8936C287.03 21.6585 287.03 24.4239 287.03 27.1888C286.113 27.1888 285.195 27.1888 284.277 27.1888C284.277 24.4239 284.277 21.6585 284.277 18.8936C283.287 18.8936 282.297 18.8936 281.307 18.8936C281.307 18.0883 281.307 17.2822 281.307 16.4766Z" fill="white"/>
<path fill-rule="evenodd" clip-rule="evenodd" d="M256.071 24.3596C258.209 24.2963 258.307 27.0346 256.507 27.3806C255.421 27.5896 254.479 26.4709 254.845 25.4029C255.059 24.7776 255.483 24.6218 256.071 24.3596Z" fill="white"/>
</svg>
