<svg width="155" height="55" viewBox="0 0 155 55" fill="none" xmlns="http://www.w3.org/2000/svg">
<g clip-path="url(#clip0_1870_2032)">
<path d="M155 20.1371C154.969 20.1856 154.917 20.231 154.909 20.283C154.607 22.2197 152.497 23.3431 150.715 22.9788C149.012 22.6305 147.827 21.2806 147.812 19.6181C147.809 19.1365 147.908 18.6598 148.103 18.2178C148.297 17.7758 148.582 17.3783 148.94 17.0501C149.298 16.722 149.721 16.4704 150.183 16.3112C150.645 16.152 151.135 16.0886 151.623 16.1251C153.113 16.2401 154.191 16.9535 154.774 18.3325C154.863 18.5439 154.925 18.7665 155 18.9839V20.1371ZM148.365 19.5515C148.345 20.1489 148.507 20.7385 148.829 21.2451C149.151 21.7517 149.619 22.1525 150.174 22.3962C150.728 22.6398 151.344 22.7155 151.942 22.6135C152.54 22.5114 153.094 22.2363 153.533 21.8232C153.972 21.4101 154.276 20.8777 154.406 20.2939C154.536 19.7101 154.487 19.1013 154.264 18.5453C154.042 17.9892 153.656 17.5109 153.156 17.1715C152.656 16.8321 152.065 16.6468 151.458 16.6394C151.06 16.6266 150.663 16.6922 150.29 16.8323C149.918 16.9725 149.578 17.1843 149.29 17.4555C149.001 17.7267 148.771 18.0518 148.612 18.4117C148.454 18.7716 148.369 19.1591 148.365 19.5515V19.5515Z" fill="white"/>
<path d="M70.2993 53.5031C70.075 51.5913 69.8502 49.6756 69.6204 47.7164C69.7171 47.7197 69.8135 47.7301 69.9086 47.7475C71.1274 48.0748 72.3858 48.237 73.6491 48.2297C74.1741 48.2313 74.6977 48.1763 75.2106 48.0657C75.6094 47.9824 75.9874 47.8217 76.3224 47.5929C76.6574 47.3642 76.9427 47.072 77.1617 46.7335C77.4232 46.3399 77.6221 45.9064 77.856 45.4946C77.9339 45.3617 77.976 45.2115 77.9784 45.0581C77.9808 44.9047 77.9434 44.7533 77.8697 44.6181C77.0073 42.684 76.1699 40.7392 75.324 38.798C73.0052 33.4768 70.6872 28.1553 68.3697 22.8336C67.2257 20.1989 65.7375 17.7904 63.6742 15.7469C61.8353 13.9535 59.7224 12.4545 57.4123 11.3046C55.368 10.2628 53.265 9.35883 51.0225 8.8104C48.7167 8.24091 46.3336 8.03596 43.9625 8.20321C41.426 8.36459 38.9329 8.92905 36.5797 9.8747C36.4951 9.90293 36.409 9.9269 36.3219 9.94652C35.9757 9.17635 35.6344 8.41714 35.2721 7.61122C35.0874 7.995 32.5321 22.1958 32.5286 22.7874C33.3703 22.861 34.221 22.7772 35.0623 22.8326C35.1576 23.1475 35.193 29.7136 35.1059 30.3985C34.7766 30.5001 26.8243 30.5153 26.3701 30.4096V22.8305C28.2092 22.7882 30.0491 22.841 31.9323 22.8008C32.0252 22.3057 32.1179 21.8309 32.203 21.3546C32.7668 18.1988 33.3296 15.0428 33.8915 11.8866C34.1921 10.1994 34.498 8.51309 34.7842 6.82356C34.8019 6.63528 34.7678 6.44578 34.6856 6.2749C34.2102 5.17383 33.719 4.07934 33.2339 2.98236C33.1685 2.83456 33.1078 2.68476 33.0337 2.50923C33.136 2.44719 33.2418 2.39082 33.3506 2.34038C35.6219 1.43853 37.9937 0.804853 40.4166 0.452608C42.4379 0.151277 44.4837 0.0395109 46.5264 0.118817C52.3475 0.354295 57.7553 1.92956 62.7087 4.9763C66.9627 7.59288 70.6171 10.8406 73.5392 14.8664C75.5038 17.5963 77.0025 20.6235 77.9762 23.8287C79.3507 28.2478 80.7991 32.6448 82.2167 37.0509C82.2637 37.197 82.3206 37.34 82.373 37.4844L82.4905 37.478C83.9486 32.6014 85.4078 27.7209 86.8681 22.8365H95.5042C95.4463 23.0088 95.402 23.1591 95.3458 23.3049C92.9927 29.4078 90.6386 35.5103 88.2835 41.6124C87.4729 43.7104 86.6599 45.8076 85.825 47.8962C85.4352 48.8416 84.9585 49.75 84.4009 50.6101C83.3523 52.2666 81.7951 53.1805 79.9172 53.6416C78.6435 53.9357 77.3365 54.0667 76.0287 54.0313C74.182 53.9784 72.3399 53.8216 70.5114 53.5616C70.4395 53.5464 70.3687 53.5269 70.2993 53.5031V53.5031Z" fill="white"/>
<path d="M97.0175 45.5791C99.8593 45.8907 102.674 46.1992 105.495 46.5086C105.577 46.7059 105.652 46.8815 105.723 47.0581C105.835 47.3501 106.006 47.6164 106.226 47.8403C106.447 48.0642 106.712 48.2408 107.005 48.3592C108.235 48.8788 109.622 48.9046 110.87 48.4308C111.25 48.3032 111.593 48.0878 111.871 47.8027C112.149 47.5176 112.353 47.1712 112.467 46.7924C112.649 46.2616 112.762 45.7102 112.803 45.1514C112.858 43.8527 112.833 42.5509 112.838 41.2503C112.828 41.1493 112.811 41.0491 112.788 40.9502C112.574 41.1671 112.411 41.3283 112.253 41.494C111.081 42.7433 109.528 43.5845 107.829 43.8912C103.95 44.6133 100.779 43.4779 98.4041 40.3285C97.3972 38.9561 96.751 37.3598 96.523 35.6819C96.1735 33.576 96.2296 31.4243 96.6882 29.3388C97.1644 27.2396 98.1703 25.4496 99.9271 24.1146C101.286 23.0961 102.915 22.4877 104.618 22.3634C105.786 22.2609 106.963 22.3141 108.116 22.5218C109.667 22.792 111.089 23.5423 112.177 24.6636C112.492 24.9794 112.78 25.3218 113.08 25.6522C113.175 25.7574 113.27 25.8634 113.435 26.0473C113.476 25.5076 113.488 24.9661 113.47 24.4251C113.477 23.9107 113.472 23.396 113.472 22.8946C113.856 22.7994 121.131 22.7795 121.703 22.8694V23.4207C121.703 30.0573 121.703 36.6938 121.704 43.3303C121.704 43.9954 121.75 44.6634 121.703 45.325C121.511 47.9746 120.434 50.1979 118.296 51.8634C117.118 52.7812 115.728 53.2528 114.274 53.559C112.204 53.9952 110.107 54.0592 108 54.0178C106.167 54.0128 104.34 53.7998 102.557 53.3829C101.185 53.0388 99.9202 52.4949 98.895 51.49C97.7261 50.3575 97.0355 48.8318 96.9618 47.219C96.9349 46.807 96.9551 46.3917 96.9613 45.978C96.9724 45.8441 96.9912 45.7109 97.0175 45.5791ZM105.022 33.4744C105.116 34.1596 105.162 34.8556 105.317 35.5275C105.571 36.6336 106.2 37.5008 107.271 37.983C109.314 38.9022 111.873 38.1035 112.628 35.5979C112.983 34.3705 113.024 33.0755 112.746 31.8287C112.575 30.9381 112.134 30.1191 111.482 29.4788C109.776 27.7912 106.166 28.0005 105.367 31.0979C105.185 31.8793 105.069 32.6742 105.022 33.4744V33.4744Z" fill="white"/>
<path d="M41.9488 22.8372H50.0135C50.0265 22.9854 50.0509 23.1394 50.0516 23.2935C50.0555 24.136 50.0524 24.9784 50.0547 25.8209C50.0552 25.9778 50.0696 26.1347 50.0788 26.3163C50.2945 26.2825 50.3599 26.1374 50.4515 26.0345C51.0886 25.3055 51.7986 24.6416 52.5709 24.0526C53.9514 23.0185 55.5219 22.5098 57.2374 22.3626C58.4643 22.2316 59.7049 22.3082 60.9056 22.5891C63.5854 23.2688 65.2227 24.9714 65.8862 27.5983C66.1253 28.5457 66.2464 29.5182 66.2468 30.4944C66.2525 35.1648 66.2534 39.8352 66.2495 44.5056C66.2495 44.6372 66.2495 44.7687 66.2495 44.9493C66.1019 44.9765 65.9527 44.9949 65.8028 45.0042C63.1588 45.0073 60.5148 45.0076 57.8708 45.005C57.7526 45.005 57.6344 44.9852 57.4664 44.9702C57.4531 44.7589 57.4294 44.5587 57.4293 44.3586C57.4271 40.575 57.4335 36.7913 57.4213 33.0078C57.4185 32.4468 57.3708 31.8869 57.2786 31.3334C56.9707 29.4711 55.5854 28.836 54.0506 28.9489C52.5123 29.062 51.4706 29.9261 51.0273 31.3907C50.7654 32.3327 50.6434 33.307 50.6653 34.2834C50.6603 37.6384 50.6596 40.9934 50.6634 44.3484V44.9011C50.2951 45.0273 42.477 45.0568 41.9585 44.9488C41.8538 44.6205 41.8392 23.2743 41.9488 22.8372Z" fill="white"/>
<path d="M138.18 22.2925C140.576 22.3344 142.559 22.5321 144.452 23.2374C148.415 24.7138 150.843 27.5001 151.605 31.6012C152.082 34.1724 151.842 36.7097 150.65 39.0836C149.155 42.0604 146.71 43.9416 143.491 44.8722C141.766 45.3419 139.979 45.5539 138.191 45.5011C136.344 45.4787 134.532 45.2482 132.803 44.5968C129.513 43.3575 127.162 41.1643 125.953 37.8732C125.292 36.0734 125.195 34.204 125.431 32.3191C125.894 28.6078 127.859 25.867 131.106 23.9959C132.601 23.1633 134.255 22.6442 135.964 22.4713C136.828 22.3685 137.699 22.33 138.18 22.2925ZM142.934 33.913C142.934 33.588 142.953 33.2616 142.93 32.9382C142.892 32.1244 142.704 31.3242 142.375 30.5766C142.096 29.9336 141.654 29.372 141.091 28.946C140.528 28.52 139.863 28.244 139.16 28.1446C138.457 28.0451 137.74 28.1256 137.078 28.3783C136.416 28.631 135.831 29.0474 135.38 29.5872C134.925 30.1406 134.599 30.785 134.424 31.4755C134.13 32.6704 134.05 33.9065 134.187 35.1285C134.241 35.9266 134.443 36.7083 134.78 37.4358C135.181 38.2981 135.875 38.9961 136.742 39.4099C137.608 39.8237 138.595 39.9276 139.531 39.7037C141.089 39.3421 142.058 38.3497 142.555 36.8863C142.862 35.9258 142.991 34.9185 142.934 33.913V33.913Z" fill="white"/>
<path d="M5.36751 26.9289H2.77565H0.156749C0.148306 25.3524 0.137583 23.8404 0.165365 22.2891C0.393135 22.2762 0.568352 22.2579 0.743602 22.2576C2.09566 22.2552 3.44773 22.2573 4.79979 22.2549C4.97543 22.2546 5.15103 22.2367 5.3642 22.2248C5.37784 22.0325 5.39643 21.8752 5.39893 21.7176C5.41091 20.964 5.40599 20.21 5.43133 19.4569C5.45837 18.7474 5.5825 18.0447 5.80037 17.3679C6.07041 16.4822 6.63085 15.7096 7.39414 15.1706C8.5063 14.3742 9.7658 13.9095 11.0876 13.5926C12.6993 13.2303 14.348 13.0521 16.001 13.0614C18.6453 13.0316 21.2858 13.2651 23.8822 13.7583C23.9674 13.7746 24.05 13.804 24.1867 13.8421C23.8432 15.2012 23.4176 16.518 23.0274 17.9024C22.6384 17.8626 22.2566 17.8297 21.8765 17.7836C20.4909 17.6034 19.0909 17.5544 17.6958 17.6372C17.2773 17.6709 16.8629 17.7434 16.4583 17.8539C15.54 18.0933 15.005 18.6905 14.8391 19.6146C14.7411 20.48 14.7308 21.3529 14.8084 22.2203C14.9865 22.2317 15.1759 22.2543 15.3654 22.2546C17.3184 22.2572 19.2713 22.2582 21.2243 22.2575C21.3994 22.2577 21.5744 22.2753 21.7715 22.2861V26.8884C21.6012 26.9019 21.4299 26.9269 21.2585 26.9271C19.2905 26.9299 17.3225 26.9305 15.3544 26.9289H14.7583C14.7573 28.1688 14.756 29.3601 14.7555 30.5513C14.7551 31.7337 14.755 32.9161 14.7554 34.0985V41.2372C14.7554 42.4312 14.7554 43.6252 14.7554 44.8044C14.3839 44.9131 6.16817 44.949 5.4391 44.8512C5.4267 44.6639 5.40211 44.4648 5.40201 44.2655C5.39978 40.0533 5.39922 35.8411 5.40032 31.6289C5.40032 30.2544 5.39986 28.8798 5.39894 27.5053C5.39863 27.3315 5.38051 27.1578 5.36751 26.9289Z" fill="white"/>
<path d="M26.373 44.9238V31.4512H35.1162V44.9137C34.733 45.0364 26.8166 45.0459 26.373 44.9238Z" fill="white"/>
<path d="M43.7948 50.399C43.7176 50.6797 43.6372 50.9596 43.5639 51.2413C43.4783 51.5701 43.3935 51.8994 43.3183 52.2307C43.3132 52.2823 43.2975 52.3324 43.2723 52.378C43.247 52.4235 43.2126 52.4635 43.1713 52.4957C43.1299 52.5278 43.0823 52.5514 43.0315 52.565C42.9806 52.5786 42.9275 52.5819 42.8752 52.5748C42.8602 52.5746 42.8452 52.5752 42.8302 52.5765C42.1468 52.6133 42.112 52.5893 41.9245 51.9502C41.6791 51.1136 41.4316 50.2775 41.1907 49.4396C41.1472 49.2883 41.1311 49.1293 41.0996 48.9589C41.1795 48.9288 41.262 48.9056 41.3461 48.8899C41.967 48.844 41.9759 48.8505 42.1396 49.4519C42.2755 49.9508 42.4071 50.4509 42.5431 50.9498C42.585 51.1036 42.6353 51.2552 42.7061 51.4877C42.7649 51.4044 42.8151 51.3155 42.856 51.2224C43.0302 50.5655 43.1952 49.9063 43.3696 49.2494C43.4651 48.8896 43.4776 48.8861 43.8621 48.8829C44.2745 48.8794 44.302 48.8919 44.4028 49.2545C44.5691 49.8524 44.7245 50.4532 44.8876 51.052C44.9245 51.1877 44.9742 51.3201 45.0464 51.5408C45.1024 51.4242 45.1518 51.3046 45.1945 51.1827C45.3613 50.5545 45.5196 49.9241 45.6872 49.2961C45.7962 48.888 45.8116 48.8795 46.2369 48.884C46.3538 48.8852 46.4704 48.9023 46.6442 48.9169C46.6323 49.0649 46.6105 49.2121 46.5791 49.3573C46.308 50.2943 46.0324 51.2299 45.7523 52.1643C45.6413 52.5344 45.5975 52.5618 45.2202 52.5768C45.1153 52.581 45.0097 52.5804 44.9049 52.5744C44.553 52.5543 44.5042 52.5201 44.4068 52.1802C44.2725 51.7114 44.1483 51.2399 44.0174 50.7701C43.9824 50.6444 43.9391 50.521 43.8995 50.3966L43.7948 50.399Z" fill="white"/>
<path d="M57.5933 50.9482C57.497 50.6718 57.4261 50.3873 57.3814 50.0984C57.3449 49.3757 57.8521 48.8672 58.6387 48.8266C58.9045 48.813 59.1735 48.8809 59.4418 48.8904C59.7852 48.9026 60.1295 48.8934 60.4597 48.8934C60.6741 49.3963 60.6237 49.4991 60.1085 49.6225C60.2488 50.149 60.2202 50.6522 59.7389 51.0104C59.2824 51.3503 58.7567 51.3092 58.24 51.1931C58.0392 51.5429 58.1016 51.6999 58.4648 51.7375C58.8671 51.7791 59.2762 51.7697 59.6749 51.83C59.83 51.8428 59.9795 51.8929 60.1103 51.9759C60.2411 52.0589 60.3492 52.1722 60.4252 52.3059C60.5011 52.4397 60.5425 52.5897 60.5458 52.7428C60.5491 52.896 60.5142 53.0476 60.444 53.1843C60.3808 53.3275 60.2875 53.4559 60.1702 53.5609C60.0529 53.666 59.9142 53.7453 59.7635 53.7937C59.1091 54.03 58.3917 54.0354 57.7338 53.809C57.14 53.6094 56.9735 53.02 57.3365 52.5177C57.4054 52.4225 57.4888 52.3375 57.588 52.2215C57.1528 51.7758 57.2294 51.3278 57.5933 50.9482ZM58.9218 52.4052C58.7099 52.4052 58.5889 52.3944 58.4707 52.4075C58.366 52.4218 58.2688 52.469 58.1937 52.5422C58.1185 52.6153 58.0694 52.7103 58.0536 52.8132C58.0276 52.8912 58.0298 52.9757 58.0599 53.0523C58.0899 53.1289 58.146 53.193 58.2185 53.2336C58.4892 53.4117 59.187 53.4051 59.4136 53.1842C59.5216 53.0691 59.5865 52.9212 59.5975 52.765C59.6071 52.5857 59.4425 52.4855 59.2745 52.4467C59.1581 52.4242 59.0402 52.4104 58.9218 52.4052H58.9218ZM58.7688 50.6664C58.8518 50.6706 58.9348 50.6571 59.0121 50.6269C59.0894 50.5968 59.1592 50.5506 59.2169 50.4916C59.2745 50.4325 59.3185 50.362 59.3461 50.2848C59.3736 50.2075 59.3839 50.1254 59.3764 50.0438C59.3842 49.966 59.3752 49.8875 59.3499 49.8134C59.3247 49.7392 59.2838 49.6712 59.2299 49.6138C59.1761 49.5563 59.1105 49.5107 59.0375 49.48C58.9645 49.4492 58.8857 49.434 58.8063 49.4354C58.7232 49.4303 58.6401 49.442 58.5619 49.4699C58.4837 49.4979 58.4122 49.5413 58.3518 49.5976C58.2914 49.6539 58.2435 49.7219 58.211 49.7972C58.1784 49.8726 58.162 49.9537 58.1628 50.0356C58.1565 50.1171 58.1676 50.199 58.1954 50.276C58.2232 50.353 58.267 50.4235 58.3241 50.4829C58.3811 50.5423 58.4501 50.5893 58.5267 50.6209C58.6033 50.6525 58.6857 50.668 58.7688 50.6664H58.7688Z" fill="white"/>
<path d="M55.611 52.1325C55.4272 52.2589 55.2871 52.3714 55.1325 52.459C54.9663 52.5621 54.7784 52.6264 54.5831 52.6472C54.3878 52.6679 54.1902 52.6445 54.0055 52.5787C53.8208 52.5129 53.6538 52.4064 53.5173 52.2674C53.3807 52.1284 53.2782 51.9605 53.2176 51.7766C52.9639 51.1039 52.9694 50.363 53.233 49.6939C53.5643 48.8298 54.4667 48.5535 55.2558 49.0496C55.3275 49.0947 55.4019 49.1358 55.547 49.221V47.2767H56.4157C56.4302 47.4432 56.453 47.585 56.4533 47.727C56.4559 49.1746 56.4565 50.6222 56.455 52.0699C56.455 52.0994 56.4552 52.129 56.4545 52.1585C56.4498 52.3511 56.4735 52.5518 56.1834 52.5767C55.8819 52.6026 55.7883 52.5573 55.6817 52.2814C55.6665 52.2422 55.6457 52.205 55.611 52.1325ZM55.5472 50.7261C55.5962 50.5461 55.5876 50.3555 55.5224 50.1805C55.4572 50.0056 55.3387 49.8547 55.183 49.7485C54.7557 49.4478 54.319 49.5393 54.1164 50.013C54.019 50.2383 53.9681 50.4805 53.9668 50.7254C53.9656 50.9703 54.0139 51.213 54.1089 51.4393C54.2903 51.8921 54.729 51.9951 55.1422 51.7183C55.3093 51.6178 55.4389 51.467 55.5118 51.2883C55.5848 51.1095 55.5972 50.9124 55.5472 50.7261V50.7261Z" fill="white"/>
<path d="M7.68126 49.6541H6.34962C6.33906 49.8439 6.32341 50.002 6.32267 50.1601C6.31968 50.7953 6.32345 51.4304 6.32052 52.0656C6.3183 52.546 6.25536 52.605 5.77852 52.5739C5.66419 52.5582 5.551 52.5353 5.43965 52.5053V49.7005C5.25038 49.6503 5.0965 49.6095 4.89453 49.556V48.9322L5.39996 48.8589C5.40957 48.7067 5.40871 48.5622 5.42991 48.4208C5.44864 48.2013 5.49155 47.9843 5.55789 47.7739C5.75234 47.2765 6.54648 46.9948 7.01101 47.2497C7.09315 47.3087 7.14946 47.3963 7.16858 47.4946C7.18431 47.6259 7.18654 47.7585 7.17525 47.8902C6.90364 47.9575 6.59838 47.7897 6.4418 48.0671C6.3766 48.1901 6.33703 48.3247 6.3254 48.463C6.31378 48.6013 6.33034 48.7404 6.37412 48.8723C6.54358 48.8805 6.70345 48.8936 6.86341 48.8948C7.28377 48.898 7.70422 48.8924 8.12455 48.8971C8.5372 48.9017 8.56315 48.9263 8.57341 49.3198C8.58034 49.5855 8.57555 49.8515 8.57556 50.1174C8.57559 50.7821 8.57854 51.4468 8.57413 52.1114C8.57131 52.5369 8.50697 52.5955 8.07625 52.5761C7.94345 52.5616 7.81158 52.5398 7.68127 52.5107V49.6541H7.68126Z" fill="white"/>
<path d="M13.7337 49.2353C13.9155 49.1291 14.0375 49.0547 14.1623 48.9852C15.0014 48.5185 15.9266 48.9304 16.0015 49.8665C16.0706 50.7305 16.0162 51.6041 16.0162 52.4744C15.7337 52.6373 15.4643 52.5848 15.1382 52.503C15.1382 52.2967 15.1383 52.1078 15.1382 51.9188C15.1381 51.461 15.1454 51.003 15.1342 50.5455C15.1335 50.3539 15.1062 50.1634 15.0529 49.9791C15.0152 49.8495 14.9293 49.7387 14.8122 49.6687C14.6951 49.5987 14.5556 49.5747 14.4214 49.6015C14.2273 49.654 14.0544 49.7641 13.9261 49.9167C13.7978 50.0693 13.7203 50.2571 13.7042 50.4545C13.6983 50.9713 13.7024 51.4882 13.7023 52.0051C13.7022 52.1652 13.7023 52.3254 13.7023 52.4708C13.5708 52.5362 13.4265 52.5731 13.2793 52.5788C13.132 52.5846 12.9853 52.5592 12.8489 52.5043C12.8377 52.3761 12.817 52.2486 12.8168 52.1211C12.8146 50.6443 12.8151 49.1675 12.8185 47.6907C12.819 47.5401 12.7411 47.3211 12.9503 47.2678C13.1528 47.2256 13.3621 47.2262 13.5643 47.2696C13.6257 47.2808 13.6909 47.4546 13.6948 47.5561C13.7103 47.9543 13.6996 48.3534 13.7036 48.7521C13.705 48.8926 13.7206 49.033 13.7337 49.2353Z" fill="white"/>
<path d="M32.1802 48.9412C31.8895 49.5466 31.3759 49.8946 31.0357 50.4238C31.4524 51.0828 31.8753 51.7515 32.2991 52.4217C31.7499 52.7116 31.3808 52.6315 31.1043 52.1998C30.8564 51.8126 30.614 51.4221 30.3657 51.0352C30.2966 50.9276 30.2152 50.8276 30.0778 50.6398C30.0229 50.9532 30.0051 51.2717 30.0248 51.5891C30.0173 51.8827 30.0231 52.1766 30.0231 52.4654C29.892 52.5385 29.7447 52.5789 29.5941 52.583C29.4435 52.5871 29.2941 52.5547 29.1592 52.4887V47.3187C29.4311 47.1706 29.6885 47.1965 30.0154 47.2987C30.0204 48.2802 30.0254 49.27 30.031 50.3671C30.1359 50.2799 30.2352 50.1863 30.3284 50.087C30.5398 49.8374 30.7333 49.5737 30.9075 49.2977C31.1174 48.9281 31.4248 48.8373 31.8133 48.8848C31.9003 48.8954 31.9866 48.9112 32.1802 48.9412Z" fill="white"/>
<path d="M38.8499 48.8075C39.8975 48.8076 40.4288 49.2509 40.6 50.2614C40.6691 50.6705 40.6376 51.0899 40.5082 51.4845C40.2415 52.3155 39.5959 52.6589 38.6999 52.6409C37.6238 52.6192 37.0508 52.0438 36.9948 50.9842C36.9853 50.8223 36.9862 50.6599 36.9975 50.498C37.0793 49.4203 37.7531 48.8074 38.8499 48.8075ZM37.9188 50.6265C37.9369 50.8628 37.9421 50.9955 37.959 51.1268C37.9715 51.1994 37.9912 51.2706 38.0179 51.3394C38.0552 51.5069 38.1509 51.6563 38.2883 51.7618C38.4257 51.8672 38.5962 51.9221 38.7704 51.9169C38.9517 51.9326 39.1329 51.8855 39.2827 51.7836C39.4325 51.6818 39.5415 51.5317 39.5908 51.3592C39.7361 50.9362 39.7348 50.4778 39.587 50.0557C39.5394 49.8984 39.4417 49.7604 39.3084 49.6618C39.1751 49.5633 39.0132 49.5095 38.8465 49.5083C38.6801 49.4958 38.5141 49.5369 38.3734 49.6252C38.2328 49.7136 38.125 49.8444 38.0664 49.9982C38.0007 50.2035 37.9514 50.4136 37.9188 50.6265Z" fill="white"/>
<path d="M22.2728 50.7245C22.2691 50.8929 22.2543 51.0608 22.2286 51.2272C22.0081 52.2682 21.2927 52.6906 20.2631 52.636C19.2517 52.5824 18.737 52.0754 18.6724 51.0739C18.6473 50.6788 18.6865 50.2822 18.7884 49.8992C18.8499 49.6449 18.986 49.414 19.1799 49.2353C19.3737 49.0565 19.6166 48.9379 19.8785 48.894C20.2434 48.8196 20.6184 48.8061 20.9878 48.8539C21.7251 48.9639 22.1489 49.4556 22.2443 50.2132C22.2645 50.3737 22.263 50.5368 22.2728 50.7245ZM21.3412 50.7432C21.3203 50.5349 21.3181 50.3709 21.2852 50.2131C21.2607 50.0203 21.1662 49.8427 21.019 49.7132C20.8719 49.5836 20.6821 49.5109 20.4847 49.5083C20.2876 49.5034 20.0951 49.5676 19.9415 49.6893C19.788 49.811 19.6832 49.9823 19.6459 50.1729C19.5484 50.5307 19.5469 50.9072 19.6417 51.2657C19.6794 51.4461 19.7779 51.6088 19.9214 51.7271C20.0648 51.8454 20.2448 51.9125 20.4319 51.9174C20.619 51.9223 20.8023 51.8648 20.9519 51.7541C21.1016 51.6434 21.2088 51.4862 21.2561 51.3079C21.298 51.1219 21.3265 50.9332 21.3412 50.7432V50.7432Z" fill="white"/>
<path d="M23.9819 52.4724C23.8501 52.5374 23.7056 52.5737 23.5582 52.5789C23.4109 52.584 23.2641 52.5579 23.1279 52.5022V48.9212L23.78 48.882L23.9168 49.3065C23.9708 49.2926 24.0224 49.271 24.07 49.2422C24.2147 49.1019 24.3862 48.9911 24.5746 48.9163C24.763 48.8416 24.9646 48.8042 25.1677 48.8065C25.4102 48.8016 25.6472 48.8777 25.8401 49.0224C26.033 49.1671 26.1705 49.3718 26.23 49.6033C26.2671 49.7 26.29 49.8015 26.298 49.9047C26.3035 50.76 26.3011 51.6154 26.3011 52.4732C26.1696 52.5438 26.0226 52.5818 25.8729 52.584C25.7231 52.5861 25.5751 52.5523 25.4415 52.4855C25.4338 52.329 25.4201 52.1693 25.4191 52.0096C25.4159 51.5367 25.4238 51.0636 25.4147 50.5909C25.4172 50.3991 25.3947 50.2077 25.3477 50.0215C25.3297 49.9335 25.2897 49.8513 25.2313 49.7823C25.1729 49.7134 25.0979 49.6599 25.0131 49.6267C24.9284 49.5935 24.8366 49.5817 24.746 49.5922C24.6554 49.6028 24.569 49.6355 24.4945 49.6873C24.1738 49.8775 23.9495 50.1233 23.975 50.5443C24.0053 51.045 23.982 51.5488 23.9819 52.0513C23.9819 52.1962 23.9819 52.3411 23.9819 52.4724Z" fill="white"/>
<path d="M36.1002 52.5238C35.9716 52.5487 35.8417 52.5662 35.7111 52.5763C35.3063 52.5863 35.2513 52.5328 35.2472 52.1213C35.2421 51.6041 35.2517 51.0867 35.242 50.5697C35.2442 50.3779 35.2194 50.1867 35.1685 50.0015C35.149 49.9176 35.1092 49.8397 35.0523 49.7743C34.9955 49.7089 34.9234 49.6581 34.8423 49.6262C34.7611 49.5943 34.6733 49.5823 34.5863 49.5911C34.4994 49.6 34.416 49.6294 34.3431 49.677C34.0232 49.861 33.7845 50.0955 33.8026 50.5211C33.8302 51.1687 33.8099 51.8183 33.8099 52.4626C33.6795 52.5368 33.5326 52.5782 33.3822 52.5831C33.2317 52.588 33.0823 52.5563 32.9473 52.4908V48.916L33.5965 48.8803C33.6529 49.0343 33.7007 49.1649 33.76 49.3273C33.892 49.2341 34.0102 49.1503 34.1287 49.0668C34.397 48.871 34.7294 48.7797 35.0619 48.8104C35.2817 48.8154 35.4943 48.8885 35.6695 49.0192C35.8447 49.15 35.9736 49.3319 36.0377 49.5389C36.0944 49.6915 36.1265 49.8519 36.1329 50.0143C36.1442 50.7825 36.1414 51.551 36.1408 52.3194C36.1331 52.3885 36.1195 52.4569 36.1002 52.5238Z" fill="white"/>
<path d="M50.0495 50.9561C50.0389 51.5898 50.2542 51.8886 50.7857 51.9369C51.0981 51.9436 51.4103 51.9163 51.7166 51.8554C51.8593 51.8274 51.9999 51.7895 52.1372 51.7419C52.3375 52.1968 52.2721 52.3798 51.865 52.5001C51.3469 52.6621 50.7947 52.6869 50.2638 52.5721C50.0031 52.5245 49.762 52.4037 49.5696 52.2241C49.3771 52.0446 49.2416 51.8141 49.1795 51.5604C49.0309 51.0453 49.0313 50.4997 49.1807 49.9849C49.2596 49.734 49.3963 49.5045 49.5801 49.3141C49.7639 49.1238 49.9898 48.9777 50.2402 48.8872C50.4907 48.7968 50.759 48.7644 51.0242 48.7926C51.2895 48.8208 51.5445 48.9088 51.7696 49.0499C52.2507 49.3587 52.5628 50.249 52.3722 50.7532C52.3116 50.9136 52.1785 50.9239 52.0433 50.9252C51.5629 50.9298 51.0824 50.9263 50.602 50.9306C50.4247 50.9321 50.2476 50.9465 50.0495 50.9561ZM51.4926 50.3338C51.539 49.9819 51.4593 49.7122 51.178 49.5396C51.065 49.4655 50.9322 49.4256 50.7964 49.425C50.6605 49.4245 50.5274 49.4632 50.4137 49.5364C50.2739 49.6159 50.164 49.738 50.1006 49.8842C50.0371 50.0304 50.0235 50.1929 50.0619 50.3474C50.5377 50.3986 51.0179 50.394 51.4926 50.3338V50.3338Z" fill="white"/>
<path d="M61.9615 50.9536C61.9259 51.5704 62.1411 51.8811 62.6725 51.9341C62.9848 51.9441 63.2973 51.9194 63.604 51.8604C63.7485 51.8318 63.8905 51.7922 64.0287 51.7419C64.2549 52.1813 64.179 52.3814 63.7377 52.5074C63.2328 52.6601 62.6967 52.6834 62.1801 52.5752C61.919 52.5302 61.6767 52.4118 61.4824 52.2343C61.2881 52.0567 61.1503 51.8276 61.0854 51.5746C60.9281 51.0461 60.9299 50.4841 61.0906 49.9566C61.1741 49.7072 61.3149 49.4801 61.5021 49.293C61.6893 49.1058 61.9177 48.9636 62.1698 48.8775C62.4218 48.7914 62.6906 48.7636 62.9553 48.7963C63.22 48.829 63.4735 48.9213 63.6961 49.0661C64.1566 49.3771 64.447 50.2223 64.2782 50.7389C64.2165 50.9275 64.0634 50.9242 63.915 50.9257C63.4346 50.9306 62.9541 50.9269 62.4736 50.9304C62.3107 50.9316 62.1479 50.9448 61.9615 50.9536ZM63.374 50.3416C63.4176 50.2056 63.418 50.0597 63.3753 49.9235C63.3325 49.7873 63.2485 49.6671 63.1346 49.579C63.0207 49.4909 62.8822 49.4391 62.7377 49.4304C62.5931 49.4217 62.4492 49.4566 62.3253 49.5304C62.1853 49.6109 62.0741 49.7321 62.0071 49.8774C61.9401 50.0227 61.9207 50.1849 61.9514 50.3416H63.374Z" fill="white"/>
<path d="M9.54812 51.7065C9.69167 51.7788 9.8418 51.8375 9.99654 51.8821C10.2413 51.9376 10.4919 51.9638 10.743 51.9601C10.8349 51.957 10.9226 51.9215 10.9902 51.8601C11.0578 51.7987 11.1007 51.7154 11.1112 51.6255C11.1267 51.5368 11.1106 51.4455 11.0657 51.3671C11.0209 51.2886 10.9499 51.2278 10.8648 51.1948C10.611 51.0689 10.3401 50.9762 10.0871 50.849C9.87547 50.7652 9.69956 50.6124 9.58885 50.4162C9.47814 50.2199 9.43935 49.9921 9.47901 49.7711C9.48632 49.6151 9.53464 49.4637 9.61924 49.3317C9.70384 49.1996 9.82181 49.0914 9.96163 49.0177C10.2061 48.8857 10.4779 48.8101 10.7565 48.7966C11.035 48.7831 11.3131 48.8322 11.5695 48.9399C11.9237 49.0718 11.7946 49.3655 11.7775 49.6685C11.6507 49.6149 11.5195 49.572 11.3853 49.5402C11.14 49.4915 10.8896 49.4726 10.6396 49.484C10.5728 49.5052 10.5123 49.5424 10.4636 49.5923C10.4149 49.6421 10.3795 49.7031 10.3605 49.7697C10.3626 49.8388 10.3784 49.9069 10.4073 49.9699C10.4361 50.033 10.4773 50.0899 10.5285 50.1372C10.6348 50.2182 10.755 50.2796 10.8835 50.3185C11.0742 50.404 11.272 50.4754 11.4577 50.5701C11.6424 50.6564 11.7949 50.7975 11.8937 50.9737C11.9924 51.1498 12.0325 51.352 12.0083 51.5518C12.0077 51.753 11.9459 51.9493 11.8308 52.1156C11.7157 52.2818 11.5527 52.4103 11.3627 52.4845C10.9154 52.6687 10.4174 52.6961 9.95216 52.5619C9.46536 52.4386 9.38275 52.2671 9.54812 51.7065Z" fill="white"/>
<path d="M48.2083 52.4952C48.0771 52.5526 47.9349 52.5817 47.7913 52.5808C47.6477 52.5798 47.5059 52.5488 47.3755 52.4897C47.3672 52.3636 47.3514 52.2345 47.3512 52.1055C47.3495 50.6465 47.3491 49.1876 47.3503 47.7287C47.3503 47.6403 47.3532 47.5519 47.354 47.4635C47.351 47.4338 47.3545 47.4038 47.3642 47.3756C47.3739 47.3473 47.3896 47.3215 47.4103 47.2997C47.431 47.2779 47.4562 47.2607 47.4841 47.2492C47.5121 47.2378 47.5423 47.2323 47.5725 47.2333C47.7752 47.2264 47.9787 47.242 48.2083 47.2489L48.2083 52.4952Z" fill="white"/>
<path d="M8.14781 47.3639C8.52984 47.3654 8.64265 47.4682 8.64716 47.819C8.6519 48.1869 8.51471 48.3187 8.13203 48.3138C7.77955 48.3093 7.62437 48.1689 7.61654 47.8475C7.6081 47.5008 7.76013 47.3624 8.14781 47.3639Z" fill="white"/>
<path d="M151.863 19.8059C152.252 20.3346 152.626 20.8427 153.013 21.3676C152.439 21.5417 152.382 21.5187 152.134 21.1078C151.973 20.8412 151.806 20.5775 151.631 20.3199C151.355 19.9139 150.963 19.806 150.436 19.921C150.421 20.413 150.406 20.9073 150.391 21.4298H149.897V17.8233C149.995 17.7984 150.094 17.7827 150.194 17.7764C150.764 17.7906 151.336 17.7845 151.902 17.8412C152.13 17.8493 152.348 17.9391 152.514 18.0937C152.68 18.2484 152.783 18.4573 152.803 18.6813C152.819 18.8968 152.765 19.1117 152.648 19.2944C152.531 19.4771 152.357 19.618 152.153 19.6964C152.058 19.739 151.959 19.7699 151.863 19.8059ZM150.451 18.2499C150.377 18.6499 150.392 19.0608 150.493 19.4549C150.895 19.4312 151.27 19.4335 151.636 19.3806C152.009 19.3268 152.211 19.0857 152.196 18.7979C152.183 18.6485 152.112 18.5095 151.999 18.4089C151.886 18.3082 151.739 18.2533 151.587 18.255C151.23 18.2315 150.871 18.2499 150.451 18.2499Z" fill="white"/>
</g>
<defs>
<clipPath id="clip0_1870_2032">
<rect width="155" height="55" fill="white"/>
</clipPath>
</defs>
</svg>
