<svg width="226" height="60" viewBox="0 0 226 60" fill="none" xmlns="http://www.w3.org/2000/svg">
<g clip-path="url(#clip0_1870_2063)">
<path opacity="0.7" d="M62.0467 36.7338L32.3779 26.5309V0L62.0467 10.2029V36.7338Z" fill="white"/>
<path d="M94.1776 52.1194H90.34C90.0908 51.1172 89.9506 50.0911 89.9219 49.059C88.5047 51.0812 85.9212 52.5489 81.6906 52.5489C73.7017 52.5489 69.3164 46.5197 69.3164 38.6893C69.3164 30.4085 74.0362 24.1833 82.6061 24.1833C89.4662 24.1833 93.5924 27.9943 94.3114 32.7643H89.1318C88.4378 30.5002 86.7197 28.2904 82.5267 28.2904C76.6071 28.2904 74.6758 33.1437 74.6758 38.4266C74.6758 43.4801 76.766 48.3543 82.4974 48.3543C87.9655 48.3543 89.1109 44.6309 89.1109 41.4203V41.1576H82.4723V36.8922H94.1776V52.1194Z" fill="white"/>
<path d="M97.5926 37.2008C97.5926 34.8909 97.5926 33.1522 97.5508 31.6511H102.421C102.492 32.1515 102.559 34.0361 102.559 35.4371C103.52 32.9562 105.79 31.2216 109.248 31.1758V35.9458C105.097 35.9166 102.559 37.3843 102.559 42.8422V52.1195H97.5926V37.2008Z" fill="white"/>
<path d="M126.576 47.091C126.568 48.7629 126.661 50.4338 126.856 52.0945H122.119C121.928 51.3672 121.826 50.6196 121.814 49.8679C121.083 51.0896 119.607 52.5698 115.861 52.5698C110.958 52.5698 108.88 49.3676 108.88 46.2154C108.88 41.5872 112.575 39.4607 118.612 39.4607H121.731V38.043C121.731 36.4753 121.187 34.7866 118.152 34.7866C115.41 34.7866 114.866 36.0375 114.569 37.5469H109.837C110.13 34.2112 112.212 31.1424 118.332 31.1716C123.662 31.2008 126.576 33.3022 126.576 38.0972V47.091ZM121.743 42.5712H119.093C115.447 42.5712 113.871 43.6386 113.871 45.9068C113.871 47.6038 114.967 48.9548 117.174 48.9548C121.225 48.9548 121.743 46.1778 121.743 43.1174V42.5712Z" fill="white"/>
<path d="M134.193 50.0347V60H129.277V36.6004C129.277 34.9326 129.277 33.2647 129.235 31.6511H134.043C134.147 32.5718 134.202 33.4974 134.206 34.4239C135.163 32.756 137.078 31.1758 140.414 31.1758C145.067 31.1758 148.587 35.0576 148.587 41.3579C148.587 48.6004 144.619 52.574 139.653 52.574C136.618 52.574 135.029 51.3857 134.193 50.0347ZM143.524 41.5371C143.524 37.5927 141.852 35.1911 138.88 35.1911C135.314 35.1911 133.989 37.4635 133.989 41.8624C133.989 46.0778 135.155 48.5712 138.629 48.5712C141.894 48.5879 143.537 46.0069 143.537 41.5497L143.524 41.5371Z" fill="white"/>
<path d="M155.417 23.0076V34.2654C156.366 32.781 158.097 31.1716 161.466 31.1716C165.107 31.1716 168.347 33.2564 168.347 38.9978V52.1195H163.414V39.765C163.414 36.8463 162.294 35.2452 159.71 35.2452C156.366 35.2452 155.417 37.6135 155.417 41.141V52.1195H150.459V23.0076H155.417Z" fill="white"/>
<path d="M172.365 24.2626H182.365C187.486 24.2626 191.006 27.0979 191.006 32.0346C191.006 37.0673 187.511 40.0277 182.089 40.0277H174.639V52.1194H172.365V24.2626ZM174.639 37.9429H182.269C186.738 37.9429 188.611 35.5871 188.611 32.1055C188.611 28.3863 186.148 26.3015 182.428 26.3015H174.639V37.9429Z" fill="white"/>
<path d="M206.934 48.2876C206.92 49.5635 207.014 50.8383 207.214 52.0986H205.22C205.056 51.6233 204.939 50.7435 204.86 49.059C204.183 50.5225 202.435 52.5739 198.334 52.5739C193.702 52.5739 191.704 49.5885 191.704 46.5989C191.704 42.2167 195.103 40.2237 201.089 40.2237H204.852V38.214C204.852 36.2334 204.254 33.5941 199.747 33.5941C195.755 33.5941 195.149 35.6789 194.731 37.3092H192.661C192.904 35.091 194.279 31.7178 199.802 31.7178C204.367 31.7178 206.929 33.6316 206.929 38.018L206.934 48.2876ZM204.902 41.9707H201.027C196.62 41.9707 193.92 43.1215 193.92 46.5114C193.92 49.0131 195.696 50.6809 198.472 50.6809C204.128 50.6809 204.919 46.9283 204.919 42.667L204.902 41.9707Z" fill="white"/>
<path d="M225.958 22.7908V46.3738C225.958 48.2793 225.958 50.1264 226 52.0986H224.006C223.927 51.6191 223.885 49.7678 223.885 48.763C222.886 51.173 220.666 52.5531 217.196 52.5531C212.008 52.5531 208.894 48.3377 208.894 42.3627C208.894 36.2334 212.288 31.697 217.719 31.697C221.686 31.697 223.283 33.394 223.876 34.6573V22.7908H225.958ZM211.113 42.3043C211.113 47.7248 213.918 50.6434 217.334 50.6434C222.568 50.6434 223.985 47.0326 223.985 41.6747C223.985 36.5795 222.764 33.64 217.689 33.64C213.743 33.6441 211.113 36.7713 211.113 42.3043Z" fill="white"/>
<path opacity="0.7" d="M52.1551 43.5385L22.4863 33.3356V6.80469L52.1551 17.0076V43.5385Z" fill="white"/>
<path opacity="0.7" d="M42.2644 50.3391L12.5957 40.1362V13.6052L42.2644 23.8081V50.3391Z" fill="white"/>
<path opacity="0.7" d="M32.378 57.1439L2.70508 46.941V20.41L32.378 30.613V57.1439Z" fill="white"/>
<path d="M0.150391 44.3891C0.150391 44.3891 29.3384 53.237 39.0287 29.0827C45.1489 13.7595 62.5563 15.8151 62.5563 15.8151" stroke="white" stroke-width="2.45" stroke-miterlimit="10"/>
</g>
<defs>
<clipPath id="clip0_1870_2063">
<rect width="226" height="60" fill="white"/>
</clipPath>
</defs>
</svg>
