<svg width="76" height="68" viewBox="0 0 76 68" fill="none" xmlns="http://www.w3.org/2000/svg">
<path d="M3.89725 0.458496L27.5928 0.458496C29.7441 0.458496 31.4901 2.20448 31.4901 4.35579L31.4901 28.0513C31.4901 30.2027 29.7441 31.9486 27.5928 31.9486L16.2517 31.9486C16.3998 38.1532 17.8418 43.1182 20.5699 46.8518C22.7212 49.7982 25.9792 52.2379 30.3365 54.1632C32.3397 55.0439 33.2049 57.4135 32.2695 59.3934L29.4635 65.3173C28.5593 67.2191 26.3223 68.0532 24.3892 67.2191C19.2292 64.9898 14.8719 62.1682 11.3177 58.7386C6.98383 54.5529 4.01417 49.8294 2.40849 44.5602C0.802725 39.2911 -4.17114e-05 32.1045 -4.17835e-05 22.9848L-4.19309e-05 4.35579C-4.19479e-05 2.20456 1.74602 0.458496 3.89725 0.458496Z" fill="#0A0A1F"/>
<path d="M3.89725 0.458496L27.5928 0.458496C29.7441 0.458496 31.4901 2.20448 31.4901 4.35579L31.4901 28.0513C31.4901 30.2027 29.7441 31.9486 27.5928 31.9486L16.2517 31.9486C16.3998 38.1532 17.8418 43.1182 20.5699 46.8518C22.7212 49.7982 25.9792 52.2379 30.3365 54.1632C32.3397 55.0439 33.2049 57.4135 32.2695 59.3934L29.4635 65.3173C28.5593 67.2191 26.3223 68.0532 24.3892 67.2191C19.2292 64.9898 14.8719 62.1682 11.3177 58.7386C6.98383 54.5529 4.01417 49.8294 2.40849 44.5602C0.802725 39.2911 -4.17114e-05 32.1045 -4.17835e-05 22.9848L-4.19309e-05 4.35579C-4.19479e-05 2.20456 1.74602 0.458496 3.89725 0.458496Z" fill="#96A4B2"/>
<path d="M67.7349 67.2036C62.6372 64.9821 58.3034 62.1605 54.7257 58.7386C50.3529 54.5529 47.3676 49.845 45.7619 44.6148C44.1562 39.3847 43.3535 32.1747 43.3535 22.9849L43.3535 4.35579C43.3535 2.20448 45.0994 0.458496 47.2508 0.458496L70.9463 0.458496C73.0976 0.458496 74.8436 2.20448 74.8436 4.35579L74.8436 28.0513C74.8436 30.2027 73.0976 31.9486 70.9463 31.9486L59.6052 31.9486C59.7533 38.1532 61.1953 43.1183 63.9234 46.8519C66.0747 49.7982 69.3328 52.2379 73.69 54.1632C75.6932 55.044 76.5584 57.4135 75.623 59.3935L72.8248 65.3018C71.9205 67.2036 69.6679 68.0454 67.7349 67.2036Z" fill="#0A0A1F"/>
<path d="M67.7349 67.2036C62.6372 64.9821 58.3034 62.1605 54.7257 58.7386C50.3529 54.5529 47.3676 49.845 45.7619 44.6148C44.1562 39.3847 43.3535 32.1747 43.3535 22.9849L43.3535 4.35579C43.3535 2.20448 45.0994 0.458496 47.2508 0.458496L70.9463 0.458496C73.0976 0.458496 74.8436 2.20448 74.8436 4.35579L74.8436 28.0513C74.8436 30.2027 73.0976 31.9486 70.9463 31.9486L59.6052 31.9486C59.7533 38.1532 61.1953 43.1183 63.9234 46.8519C66.0747 49.7982 69.3328 52.2379 73.69 54.1632C75.6932 55.044 76.5584 57.4135 75.623 59.3935L72.8248 65.3018C71.9205 67.2036 69.6679 68.0454 67.7349 67.2036Z" fill="#96A4B2"/>
</svg>
