<svg width="175" height="32" viewBox="0 0 175 32" fill="none" xmlns="http://www.w3.org/2000/svg">
<path d="M159.042 0.0201365C156.851 0.0177342 154.684 0.46738 152.675 1.34096C150.666 2.21453 148.859 3.49324 147.367 5.09708C149.184 3.97352 151.238 3.28766 153.365 3.09364C155.493 2.89962 157.636 3.20274 159.627 3.97908C161.617 4.75542 163.4 5.98374 164.834 7.56708C166.268 9.15042 167.315 11.0455 167.891 13.1026C168.468 15.1598 168.558 17.3227 168.155 19.4208C167.752 21.5189 166.868 23.4946 165.57 25.1921C164.273 26.8896 162.599 28.2624 160.681 29.2021C158.762 30.1418 156.651 30.6227 154.515 30.6069C153.96 30.608 153.405 30.5763 152.854 30.5118C155.025 31.4401 157.375 31.8732 159.734 31.7797C162.093 31.6863 164.401 31.0685 166.492 29.9715C168.582 28.8744 170.402 27.3255 171.819 25.4373C173.236 23.5491 174.214 21.369 174.684 19.0553C175.153 16.7416 175.101 14.3525 174.531 12.0615C173.962 9.77044 172.889 7.63499 171.391 5.81027C169.893 3.98556 168.008 2.51738 165.872 1.51238C163.736 0.507373 161.402 -0.00922167 159.042 0.000124592V0.0201365Z" fill="white"/>
<path d="M146.636 22.9539C146.636 22.8089 146.636 22.6638 146.636 22.5237C146.636 22.4787 146.636 22.4287 146.636 22.3837C146.636 22.3387 146.636 22.1936 146.636 22.0986C146.636 22.0035 146.636 21.9885 146.636 21.9285V21.6734V21.4983C146.636 21.4183 146.636 21.3333 146.636 21.2532C146.636 21.1732 146.636 21.1332 146.636 21.0732C146.636 21.0132 146.636 20.9131 146.661 20.8331C146.686 20.7531 146.661 20.713 146.661 20.653L146.691 20.4179C146.691 20.3579 146.691 20.2979 146.716 20.2379C146.741 20.1778 146.741 20.0828 146.756 20.0028L146.786 19.8277L146.831 19.5926C146.831 19.5376 146.831 19.4776 146.866 19.4226L146.911 19.1875C146.911 19.1274 146.936 19.0724 146.951 19.0174C146.966 18.9624 146.986 18.8573 147.006 18.7823C147.026 18.7073 147.031 18.6723 147.046 18.6172L147.106 18.3822L147.151 18.2221C147.151 18.1421 147.196 18.062 147.216 17.982L147.267 17.8269C147.292 17.7469 147.312 17.6669 147.342 17.5868L147.387 17.4368C147.387 17.3568 147.442 17.2767 147.467 17.1967C147.492 17.1167 147.502 17.1017 147.517 17.0516L147.607 16.8065L147.657 16.6715C147.692 16.5915 147.722 16.5064 147.757 16.4214C147.771 16.3789 147.788 16.3372 147.807 16.2964L147.912 16.0413L147.962 15.9212C148.002 15.8362 148.037 15.7511 148.077 15.6611C148.096 15.6271 148.112 15.592 148.127 15.5561L148.252 15.286C148.267 15.2533 148.283 15.2215 148.302 15.1909L148.437 14.9108L148.482 14.8308C148.532 14.7307 148.582 14.6357 148.637 14.5407L148.667 14.4757L148.842 14.1655L148.867 14.1255C148.932 14.0105 148.997 13.8954 149.067 13.7854C149.703 12.7406 150.444 11.7635 151.278 10.8693V10.8693C154.094 7.85461 157.868 5.91004 161.957 5.36717C159.776 3.9479 157.239 3.17047 154.637 3.12359C152.035 3.07672 149.473 3.76229 147.241 5.10207C144.465 8.06826 142.936 11.989 142.971 16.0518C143.007 20.1146 144.604 24.0081 147.432 26.9254C147.221 26.7053 147.011 26.4803 146.816 26.2502C146.654 25.1594 146.593 24.0559 146.636 22.9539V22.9539Z" fill="white"/>
<path d="M164.508 26.3751C164.583 26.3001 164.653 26.22 164.728 26.14C167.04 23.624 168.326 20.3336 168.334 16.9165C168.149 19.3263 167.031 21.5686 165.216 23.1655C163.402 24.7623 161.036 25.5874 158.622 25.4647C156.208 25.3421 153.938 24.2814 152.295 22.5089C150.652 20.7364 149.766 18.3922 149.827 15.9761C149.825 14.1575 150.365 12.3796 151.378 10.8691V10.8691C150.543 11.7634 149.802 12.7405 149.167 13.7853V13.7853C149.097 13.8953 149.032 14.0103 148.967 14.1254L148.942 14.1654L148.767 14.4755L148.736 14.5405C148.681 14.6356 148.631 14.7306 148.581 14.8306L148.536 14.9107L148.401 15.1908C148.383 15.2214 148.366 15.2531 148.351 15.2858L148.226 15.5559L148.176 15.661C148.136 15.751 148.101 15.836 148.061 15.9211L148.011 16.0411L147.906 16.2962C147.887 16.337 147.871 16.3788 147.856 16.4213C147.821 16.5063 147.791 16.5913 147.756 16.6714L147.706 16.8064L147.616 17.0515C147.616 17.1015 147.586 17.1465 147.566 17.1966C147.546 17.2466 147.511 17.3566 147.486 17.4367L147.441 17.5867C147.411 17.6667 147.391 17.7468 147.366 17.8268L147.316 17.9819C147.316 18.0619 147.271 18.1419 147.251 18.2219L147.206 18.382L147.146 18.6171C147.146 18.6721 147.116 18.7271 147.106 18.7822C147.096 18.8372 147.066 18.9372 147.051 19.0173C147.036 19.0973 147.026 19.1273 147.011 19.1873L146.966 19.4224C146.966 19.4774 146.941 19.5375 146.931 19.5925L146.886 19.8276L146.856 20.0026C146.856 20.0827 146.856 20.1627 146.816 20.2377C146.776 20.3127 146.816 20.3578 146.791 20.4178L146.761 20.6529C146.761 20.7129 146.761 20.7729 146.761 20.8329C146.761 20.893 146.761 20.993 146.736 21.073C146.711 21.1531 146.736 21.1931 146.736 21.2531C146.736 21.3131 146.736 21.4182 146.736 21.4982V21.6733V21.9284C146.736 21.9884 146.736 22.0434 146.736 22.0984C146.736 22.1535 146.736 22.2885 146.736 22.3835C146.736 22.4786 146.736 22.4786 146.736 22.5236C146.736 22.6637 146.736 22.8087 146.736 22.9538C146.735 24.053 146.838 25.1498 147.041 26.23C147.236 26.4601 147.446 26.6852 147.656 26.9053C147.971 27.2304 148.301 27.5455 148.656 27.8456C148.877 28.0407 149.107 28.2258 149.342 28.4108H149.372C149.487 28.5009 149.602 28.5909 149.722 28.676L150.072 28.9211L150.427 29.1561L150.482 29.1862C150.717 29.3412 150.957 29.4863 151.202 29.6263L151.272 29.6613C151.388 29.7314 151.513 29.7964 151.633 29.8614L151.683 29.8864L152.023 30.0615H152.078L152.448 30.2366L152.528 30.2716L152.908 30.4416C153.459 30.5061 154.014 30.5378 154.569 30.5367H154.924H155.064H155.279H155.409C155.484 30.5367 155.559 30.5367 155.634 30.5367H155.789H155.979H156.144L156.329 30.5117H156.489H156.675L156.845 30.4817L157.015 30.4566L157.19 30.4216L157.355 30.3916L157.535 30.3516L157.69 30.3166L157.87 30.2716L158.02 30.2366L158.205 30.1865L158.35 30.1465L158.54 30.0915L158.675 30.0515L158.87 29.9865L158.995 29.9464L159.201 29.8764L159.316 29.8364L159.521 29.7564L159.631 29.7164L159.841 29.6313L159.946 29.5913L160.151 29.5013L160.251 29.4563L160.461 29.3562L160.556 29.3162L160.766 29.2112L160.856 29.1661L161.071 29.0511L161.151 29.0111L161.371 28.891L161.441 28.851L161.661 28.721L161.726 28.681L161.952 28.5459L162.012 28.5059L162.237 28.3608L162.287 28.3258L162.517 28.1708L162.562 28.1358L162.787 27.9757L162.827 27.9457L163.057 27.7706L163.092 27.7456L163.322 27.5605V27.5355C163.402 27.4755 163.477 27.4105 163.552 27.3455H163.577L163.807 27.1404C163.887 27.0703 163.962 27.0053 164.037 26.9303L164.262 26.7102L164.488 26.4801L164.508 26.3751Z" fill="white"/>
<path d="M85.9074 30.5518H78.0144L71.1067 20.7931L64.3191 30.5518H56.5762L67.0802 15.5461L57.2814 1.22559H64.9844L71.1017 10.184L77.2541 1.22559H85.0871L75.3284 15.2309L85.9074 30.5518Z" fill="white"/>
<path d="M124.829 30.5517L113.324 1.24048H120.422L128.425 23.3489L136.468 1.24048H143.291L131.651 30.5517H124.829Z" fill="white"/>
<path d="M105.486 1.24048H98.6581L85.9082 30.5517H92.7358L95.0367 24.8595H108.672L110.993 30.5517H117.995L105.486 1.24048ZM97.2425 19.5375L101.889 8.14812L106.531 19.5375H97.2425Z" fill="white"/>
<path d="M15.5359 1.24048H0V6.85263H8.91842V30.5517H15.5359V6.85263H26.9603L29.3963 1.24048H15.5359Z" fill="white"/>
<path d="M136.473 1.24048L128.43 23.3489H134.517L143.295 1.24048H136.473Z" fill="white"/>
<path d="M98.658 1.24048L101.884 8.14812L106.526 19.5425H97.2375L95.0566 24.8595H108.692L111.013 30.5517H118.005L105.486 1.24048H98.658Z" fill="white"/>
<path d="M44.0525 1.24048H37.2299L24.5 30.5517H31.3226L33.6285 24.8595H47.2587L49.5796 30.5517H56.5823L44.0525 1.24048ZM35.8093 19.5375L40.4561 8.14812L45.0979 19.5375H35.8093Z" fill="white"/>
<path d="M37.2283 1.24048L40.4496 8.14812L45.0913 19.5425H35.8028L33.627 24.8595H47.2572L49.5781 30.5517H56.5707L44.0509 1.24048H37.2283Z" fill="white"/>
<path d="M64.9901 1.24048L71.1024 10.2039L67.0859 15.561L57.2871 1.24048H64.9901Z" fill="white"/>
</svg>
