<svg width="267" height="49" viewBox="0 0 267 49" fill="none" xmlns="http://www.w3.org/2000/svg">
<path d="M77.3049 14H58V18.2544H65.0674V37.0955H70.143V18.2544H77.3049V14Z" fill="white"/>
<path d="M86.6142 20.1253C86.1874 20.079 85.7605 20.0317 85.5706 20.0317C83.1045 20.0317 81.3021 21.1535 80.0686 23.4915V20.3589H75.6572V37.0958H80.306V30.1299C80.306 28.2594 80.4959 27.1849 80.9227 26.3434C81.6815 24.9404 83.1045 24.1458 84.8119 24.1458C85.3337 24.1458 85.7605 24.1926 86.6142 24.333V20.1253Z" fill="white"/>
<path d="M103.705 37.0957C103.278 35.9735 103.136 34.9925 103.136 32.6077L103.183 25.7349C103.183 23.3042 102.899 22.4627 101.713 21.5273C100.432 20.4523 98.3928 19.938 95.6892 19.938C90.851 19.938 88.1475 21.8076 87.9101 25.5014H92.274C92.6063 23.7253 93.46 23.0234 95.5468 23.0234C97.6815 23.0234 98.6772 23.7253 98.6772 25.1738C98.6772 26.5296 98.2033 26.7635 94.5507 27.1847C92.132 27.5118 91.1359 27.6986 90.2343 28.0729C88.1945 28.8676 87.1514 30.3642 87.1514 32.5146C87.1514 35.6 89.3806 37.5632 92.9382 37.5632C95.4048 37.5632 97.2072 36.9089 98.6772 35.4596C98.6772 36.1139 98.7247 36.3478 99.0095 37.0957H103.705ZM98.6301 30.8308C98.6301 33.122 97.0647 34.5714 94.5036 34.5714C92.9382 34.5714 91.9421 33.7295 91.9421 32.3274C91.9421 30.7844 92.7483 30.2238 95.3569 29.8022C97.4916 29.4755 97.8235 29.4291 98.6301 28.9144V30.8308Z" fill="white"/>
<path d="M121.326 20.3584H116.63L113.026 31.8128L109.326 20.3584H104.44L110.322 37.0954H115.539L121.326 20.3584Z" fill="white"/>
<path d="M127.137 14H122.488V17.9269H127.137V14ZM127.137 20.3585H122.488V37.0955H127.137V20.3585Z" fill="white"/>
<path d="M144.729 25.2211C144.445 21.7145 141.978 19.9385 137.377 19.9385C132.586 19.9385 129.93 21.7617 129.93 25.0339C129.93 26.6232 130.689 27.9794 131.97 28.6809C133.013 29.2416 133.725 29.4755 136.903 30.177C140.08 30.8781 140.745 31.252 140.745 32.3742C140.745 33.6832 139.512 34.4778 137.614 34.4778C135.29 34.4778 134.247 33.6368 134.01 31.6732H129.551C129.788 35.5532 132.492 37.5633 137.519 37.5633C142.357 37.5633 145.393 35.4129 145.393 31.9535C145.393 29.1016 143.686 27.7454 138.752 26.764C135.053 26.0162 134.578 25.7818 134.578 24.6136C134.578 23.585 135.575 23.0239 137.235 23.0239C139.227 23.0239 140.128 23.6318 140.365 25.2211H144.729Z" fill="white"/>
<path d="M156.304 14V37.0955H161.379V28.7738H166.644C172.004 28.7738 174.992 26.1086 174.992 21.4335C174.992 18.7692 173.949 16.6183 171.957 15.309C170.486 14.3739 168.921 14 165.696 14H156.304ZM161.379 18.2544H165.648C168.589 18.2544 170.012 19.3299 170.012 21.4335C170.012 23.7247 168.731 24.7997 165.98 24.7997H161.379V18.2544Z" fill="white"/>
<path d="M188.186 31.9062C187.475 33.5895 186.431 34.2906 184.724 34.2906C182.209 34.2906 180.834 32.7477 180.739 29.943H192.929V29.2415C192.929 23.6313 189.609 19.938 184.582 19.938C179.601 19.938 175.996 23.6781 175.996 28.774C175.996 34.057 179.459 37.5632 184.677 37.5632C188.66 37.5632 191.744 35.3656 192.645 31.9062H188.186ZM180.739 26.9975C180.977 24.6595 182.447 23.2102 184.534 23.2102C186.574 23.2102 187.902 24.5664 188.186 26.9975H180.739Z" fill="white"/>
<path d="M206.064 20.1253C205.638 20.079 205.211 20.0317 205.021 20.0317C202.555 20.0317 200.752 21.1535 199.519 23.4915V20.3589H195.107V37.0958H199.756V30.1299C199.756 28.2594 199.946 27.1849 200.373 26.3434C201.131 24.9404 202.555 24.1458 204.262 24.1458C204.784 24.1458 205.211 24.1926 206.064 24.333V20.1253Z" fill="white"/>
<path d="M223.654 20.3585H218.152L212.176 26.343V14H207.527V37.0955H212.176V31.4385L214.073 29.662L218.721 37.0955H224.366L217.251 26.5761L223.654 20.3585Z" fill="white"/>
<path d="M230.097 14H225.448V17.9269H230.097V14ZM230.097 20.3585H225.448V37.0955H230.097V20.3585Z" fill="white"/>
<path d="M237.567 20.3587H233.156V37.0957H237.804V28.4469C237.804 26.9975 237.947 26.2024 238.232 25.5014C238.801 24.3796 240.033 23.6781 241.409 23.6781C243.639 23.6781 244.397 24.6131 244.397 27.5118V37.0957H249.046V26.5764C249.046 24.3796 248.809 23.3042 248.144 22.2288C247.196 20.7794 245.441 19.938 243.259 19.938C240.793 19.938 239.038 20.7794 237.567 22.6963V20.3587Z" fill="white"/>
<path d="M266.336 25.2213C266.051 21.7148 263.584 19.9387 258.983 19.9387C254.193 19.9387 251.537 21.762 251.537 25.0342C251.537 26.6235 252.296 27.9796 253.576 28.6811C254.62 29.2418 255.331 29.4758 258.509 30.1773C261.687 30.8783 262.352 31.2523 262.352 32.3745C262.352 33.6834 261.118 34.4781 259.22 34.4781C256.897 34.4781 255.853 33.6371 255.616 31.6734H251.157C251.395 35.5535 254.098 37.5635 259.126 37.5635C263.964 37.5635 267 35.4131 267 31.9537C267 29.1019 265.292 27.7457 260.359 26.7643C256.659 26.0164 256.185 25.782 256.185 24.6139C256.185 23.5853 257.181 23.0242 258.841 23.0242C260.834 23.0242 261.734 23.6321 261.972 25.2213H266.336Z" fill="white"/>
<path d="M14.1978 46.7223C26.4707 52.4121 41.0324 47.0752 46.7223 34.8022C52.4119 22.5291 47.0752 7.96784 34.8022 2.27757C22.5292 -3.41182 7.96764 1.92493 2.27775 14.1982C-3.41189 26.4706 1.92473 41.0326 14.1978 46.7223ZM29.938 30.8315L29.9382 37.7664H23.8472V24.3685H34.8283C36.0869 24.3907 36.9495 23.5999 36.9137 22.4494C36.8596 20.7213 35.5895 20.5142 34.6125 20.5142H30.2619L30.2617 13.6983H34.6486C39.6875 13.6983 43.2418 17.7752 43.134 22.3416C43.034 26.575 39.7111 30.8222 34.8642 30.8274L29.938 30.8315ZM15.0886 20.5142H8.51446V13.6692H28.3816V20.5142H21.4529L21.4528 37.7664H15.0886V20.5142Z" fill="white"/>
</svg>
