<svg width="233" height="23" viewBox="0 0 233 23" fill="none" xmlns="http://www.w3.org/2000/svg">
<path d="M64.6532 21.8906C62.4358 21.8906 60.6265 21.9545 58.8271 21.8512C58.247 21.7602 57.7214 21.4571 57.3521 21.0007C55.7149 19.0685 54.1121 17.1019 52.5781 15.1008C52.3068 14.6946 51.9288 14.371 51.4856 14.1654C51.0424 13.9599 50.5512 13.8804 50.0658 13.9356C48.5318 14.0241 46.9929 13.9356 45.2427 13.9356V21.8021H39.623V0.69043C40.8571 0.69043 42.0518 0.69043 43.2465 0.69043C47.6714 0.764178 52.0668 0.641257 56.4524 0.990332C60.0857 1.28041 61.8606 3.08478 62.2932 6.02979C62.8095 9.40746 61.6836 11.438 58.3108 13.149C58.1401 13.2553 57.9759 13.3719 57.8192 13.498L64.6532 21.8906ZM45.2722 9.59921C48.4876 9.59921 51.5506 9.65328 54.6136 9.57462C54.8914 9.59181 55.1697 9.54985 55.4301 9.45148C55.6905 9.35311 55.927 9.2006 56.124 9.00401C56.3211 8.80743 56.4742 8.57125 56.5731 8.31111C56.6721 8.05096 56.7147 7.77278 56.6982 7.49493C56.7425 6.21663 56.2557 5.18414 54.9578 5.13498C51.7473 5.01698 48.5318 5.09565 45.2722 5.09565V9.59921Z" fill="white"/>
<path d="M80.7289 0.739502H86.3583V3.49769C86.3583 6.41812 86.3583 9.34346 86.3583 12.2688C86.3583 15.7399 87.5825 17.3378 90.97 17.7606C92.8281 17.9737 94.7076 17.9058 96.5454 17.559C99.1807 17.0674 100.243 15.5924 100.262 12.8736C100.292 8.9059 100.262 4.93333 100.262 0.828011H105.936V2.36688C105.936 6.30012 105.882 10.2039 105.936 14.1223C105.99 17.2394 104.599 19.4961 101.86 20.74C96.2455 23.2966 90.5079 23.2475 84.8785 20.8088C82.0023 19.56 80.5863 17.2247 80.6748 13.9257C80.8174 9.59912 80.7289 5.24798 80.7289 0.739502Z" fill="white"/>
<path d="M171.027 21.8022H165.397V0.813507H170.968V8.88647C172.079 8.13424 172.88 7.59342 173.672 7.04768C175.147 6.06438 176.583 5.05648 178.043 4.05842C183.382 0.415255 183.382 0.415259 190.369 0.774167L176.16 10.8678L190.998 21.5613L190.885 21.8858C188.486 21.8858 186.081 21.9252 183.682 21.8563C183.147 21.7591 182.649 21.5177 182.242 21.1582C179.021 18.8376 175.821 16.4874 172.61 14.1521C172.182 13.8423 171.73 13.5572 171.027 13.0852V21.8022Z" fill="white"/>
<path d="M231.604 1.02496L217.725 10.8581L233.001 21.8662C230.021 21.8662 227.523 21.9105 225.031 21.8318C224.539 21.8318 224.072 21.3401 223.63 21.0205C220.065 18.4394 216.51 15.8434 212.671 13.0459V21.758H207.021V0.779134H212.513V8.79802C213.241 8.36045 213.703 8.11462 214.131 7.81471C217.081 5.79401 220.006 3.69464 223.03 1.77227C224.044 1.18154 225.178 0.825402 226.348 0.729966C228.054 0.629106 229.764 0.61434 231.471 0.685719L231.604 1.02496Z" fill="white"/>
<path d="M147.919 7.26395C144.559 5.27028 140.661 4.3748 136.768 4.70241C135.452 4.79244 134.153 5.05358 132.904 5.47924C130.047 6.50188 128.71 8.61107 128.813 11.5856C128.907 14.4077 130.401 16.4038 133.282 17.2445C137.501 18.4935 142.03 18.1668 146.026 16.3251C146.567 16.0891 147.103 15.8335 147.909 15.4795C147.909 17.097 147.968 18.513 147.865 19.9044C147.84 20.2436 147.329 20.696 146.941 20.8434C141.562 22.8986 136.085 23.1936 130.598 21.3793C125.475 19.6881 122.948 15.9072 123.135 10.5629C123.307 5.81356 126.483 2.14582 131.783 0.793769C136.729 -0.49449 141.953 -0.209211 146.729 1.60992C147.668 1.95899 148.003 2.44572 147.939 3.41428C147.865 4.57459 147.919 5.72015 147.919 7.26395Z" fill="white"/>
<path d="M23.4814 0.793823V5.27771H14.5481V21.8071H8.96778V5.4203H0V0.793823H23.4814Z" fill="white"/>
</svg>
