<svg width="134" height="29" viewBox="0 0 134 29" fill="none" xmlns="http://www.w3.org/2000/svg">
<rect width="134" height="29" rx="3" fill="#F1F5F7"/>
<g clip-path="url(#clip0_2133_30)">
<path d="M25.6475 11.1325C25.5045 11.0417 25.3312 11.0114 25.1659 11.0484C25.0005 11.0853 24.8566 11.1863 24.7658 11.3293L19.4962 19.6668C19.2713 20.021 18.9789 20.3274 18.6356 20.5686C18.2923 20.8097 17.9048 20.9809 17.4953 21.0723C16.6684 21.257 15.8019 21.1056 15.0866 20.6514C14.3713 20.1972 13.8657 19.4774 13.6811 18.6505C13.4964 17.8235 13.6478 16.9571 14.102 16.2418L19.206 8.16843C19.4805 7.74376 19.9116 7.44475 20.4056 7.33655C20.8995 7.22834 21.4162 7.31971 21.8431 7.59073C22.27 7.86176 22.5725 8.29049 22.6847 8.78354C22.797 9.2766 22.7098 9.79402 22.4423 10.2231L17.3383 18.2964C17.2451 18.4366 17.1013 18.5353 16.937 18.5719C16.7727 18.6086 16.6006 18.5804 16.4566 18.4932C16.3136 18.4024 16.2125 18.2585 16.1756 18.0931C16.1387 17.9278 16.169 17.7545 16.2598 17.6115L20.8033 10.4207C20.8906 10.2777 20.9183 10.1062 20.8804 9.943C20.8425 9.77981 20.742 9.63805 20.6006 9.54824C20.4591 9.45843 20.2881 9.42775 20.1243 9.46283C19.9604 9.4979 19.817 9.59592 19.7247 9.73576L15.1812 16.9266C15.0462 17.1391 14.9545 17.3761 14.9111 17.624C14.8677 17.872 14.8736 18.1261 14.9285 18.3718C14.9833 18.6175 15.086 18.85 15.2307 19.056C15.3754 19.262 15.5593 19.4375 15.7718 19.5724C16.2042 19.833 16.7203 19.917 17.213 19.8071C17.7057 19.6971 18.1371 19.4016 18.4177 18.9819L23.5208 10.908C23.9622 10.193 24.1041 9.33293 23.9158 8.51404C23.7275 7.69515 23.2242 6.98341 22.5148 6.53301C21.8055 6.0826 20.9472 5.92981 20.126 6.10771C19.3048 6.28562 18.5868 6.7799 18.1274 7.48349L13.0235 15.5568C12.3875 16.5582 12.1755 17.7712 12.4339 18.929C12.6923 20.0867 13.4 21.0944 14.4014 21.7303C15.4028 22.3662 16.6158 22.5783 17.7736 22.3199C18.9313 22.0615 19.939 21.3537 20.5749 20.3524L25.8449 12.0168C25.8902 11.9458 25.9211 11.8666 25.9357 11.7837C25.9503 11.7008 25.9484 11.6158 25.93 11.5336C25.9117 11.4514 25.8773 11.3737 25.8288 11.3049C25.7803 11.236 25.7187 11.1775 25.6475 11.1325V11.1325Z" fill="#26124E"/>
</g>
<path d="M35.128 10.6H38.8C39.696 10.6 40.492 10.776 41.188 11.128C41.884 11.472 42.424 11.964 42.808 12.604C43.192 13.236 43.384 13.968 43.384 14.8C43.384 15.632 43.192 16.368 42.808 17.008C42.424 17.64 41.884 18.132 41.188 18.484C40.492 18.828 39.696 19 38.8 19H35.128V10.6ZM38.728 17.68C39.344 17.68 39.884 17.564 40.348 17.332C40.82 17.092 41.18 16.756 41.428 16.324C41.684 15.884 41.812 15.376 41.812 14.8C41.812 14.224 41.684 13.72 41.428 13.288C41.18 12.848 40.82 12.512 40.348 12.28C39.884 12.04 39.344 11.92 38.728 11.92H36.688V17.68H38.728ZM47.7781 19.084C47.1301 19.084 46.5461 18.944 46.0261 18.664C45.5061 18.384 45.0981 17.996 44.8021 17.5C44.5141 16.996 44.3701 16.428 44.3701 15.796C44.3701 15.164 44.5141 14.6 44.8021 14.104C45.0981 13.608 45.5061 13.22 46.0261 12.94C46.5461 12.66 47.1301 12.52 47.7781 12.52C48.4341 12.52 49.0221 12.66 49.5421 12.94C50.0621 13.22 50.4661 13.608 50.7541 14.104C51.0501 14.6 51.1981 15.164 51.1981 15.796C51.1981 16.428 51.0501 16.996 50.7541 17.5C50.4661 17.996 50.0621 18.384 49.5421 18.664C49.0221 18.944 48.4341 19.084 47.7781 19.084ZM47.7781 17.8C48.3301 17.8 48.7861 17.616 49.1461 17.248C49.5061 16.88 49.6861 16.396 49.6861 15.796C49.6861 15.196 49.5061 14.712 49.1461 14.344C48.7861 13.976 48.3301 13.792 47.7781 13.792C47.2261 13.792 46.7701 13.976 46.4101 14.344C46.0581 14.712 45.8821 15.196 45.8821 15.796C45.8821 16.396 46.0581 16.88 46.4101 17.248C46.7701 17.616 47.2261 17.8 47.7781 17.8ZM62.4527 12.592L60.0887 19H58.6487L56.9927 14.584L55.3127 19H53.8727L51.5207 12.592H52.9367L54.6287 17.32L56.3927 12.592H57.6527L59.3807 17.344L61.1207 12.592H62.4527ZM67.12 12.52C67.928 12.52 68.576 12.756 69.064 13.228C69.552 13.7 69.796 14.4 69.796 15.328V19H68.296V15.52C68.296 14.96 68.164 14.54 67.9 14.26C67.636 13.972 67.26 13.828 66.772 13.828C66.22 13.828 65.784 13.996 65.464 14.332C65.144 14.66 64.984 15.136 64.984 15.76V19H63.484V12.592H64.912V13.42C65.16 13.124 65.472 12.9 65.848 12.748C66.224 12.596 66.648 12.52 67.12 12.52ZM71.6988 10.096H73.1988V19H71.6988V10.096ZM78.0476 19.084C77.3996 19.084 76.8156 18.944 76.2956 18.664C75.7756 18.384 75.3676 17.996 75.0716 17.5C74.7836 16.996 74.6396 16.428 74.6396 15.796C74.6396 15.164 74.7836 14.6 75.0716 14.104C75.3676 13.608 75.7756 13.22 76.2956 12.94C76.8156 12.66 77.3996 12.52 78.0476 12.52C78.7036 12.52 79.2916 12.66 79.8116 12.94C80.3316 13.22 80.7356 13.608 81.0236 14.104C81.3196 14.6 81.4676 15.164 81.4676 15.796C81.4676 16.428 81.3196 16.996 81.0236 17.5C80.7356 17.996 80.3316 18.384 79.8116 18.664C79.2916 18.944 78.7036 19.084 78.0476 19.084ZM78.0476 17.8C78.5996 17.8 79.0556 17.616 79.4156 17.248C79.7756 16.88 79.9556 16.396 79.9556 15.796C79.9556 15.196 79.7756 14.712 79.4156 14.344C79.0556 13.976 78.5996 13.792 78.0476 13.792C77.4956 13.792 77.0396 13.976 76.6796 14.344C76.3276 14.712 76.1516 15.196 76.1516 15.796C76.1516 16.396 76.3276 16.88 76.6796 17.248C77.0396 17.616 77.4956 17.8 78.0476 17.8ZM85.2679 12.52C86.2119 12.52 86.9319 12.748 87.4279 13.204C87.9319 13.652 88.1839 14.332 88.1839 15.244V19H86.7679V18.22C86.5839 18.5 86.3199 18.716 85.9759 18.868C85.6399 19.012 85.2319 19.084 84.7519 19.084C84.2719 19.084 83.8519 19.004 83.4919 18.844C83.1319 18.676 82.8519 18.448 82.6519 18.16C82.4599 17.864 82.3639 17.532 82.3639 17.164C82.3639 16.588 82.5759 16.128 82.9999 15.784C83.4319 15.432 84.1079 15.256 85.0279 15.256H86.6839V15.16C86.6839 14.712 86.5479 14.368 86.2759 14.128C86.0119 13.888 85.6159 13.768 85.0879 13.768C84.7279 13.768 84.3719 13.824 84.0199 13.936C83.6759 14.048 83.3839 14.204 83.1439 14.404L82.5559 13.312C82.8919 13.056 83.2959 12.86 83.7679 12.724C84.2399 12.588 84.7399 12.52 85.2679 12.52ZM85.0639 17.992C85.4399 17.992 85.7719 17.908 86.0599 17.74C86.3559 17.564 86.5639 17.316 86.6839 16.996V16.252H85.1359C84.2719 16.252 83.8399 16.536 83.8399 17.104C83.8399 17.376 83.9479 17.592 84.1639 17.752C84.3799 17.912 84.6799 17.992 85.0639 17.992ZM96.4436 10.096V19H95.0036V18.172C94.7556 18.476 94.4476 18.704 94.0796 18.856C93.7196 19.008 93.3196 19.084 92.8796 19.084C92.2636 19.084 91.7076 18.948 91.2116 18.676C90.7236 18.404 90.3396 18.02 90.0596 17.524C89.7796 17.02 89.6396 16.444 89.6396 15.796C89.6396 15.148 89.7796 14.576 90.0596 14.08C90.3396 13.584 90.7236 13.2 91.2116 12.928C91.7076 12.656 92.2636 12.52 92.8796 12.52C93.3036 12.52 93.6916 12.592 94.0436 12.736C94.3956 12.88 94.6956 13.096 94.9436 13.384V10.096H96.4436ZM93.0596 17.8C93.4196 17.8 93.7436 17.72 94.0316 17.56C94.3196 17.392 94.5476 17.156 94.7156 16.852C94.8836 16.548 94.9676 16.196 94.9676 15.796C94.9676 15.396 94.8836 15.044 94.7156 14.74C94.5476 14.436 94.3196 14.204 94.0316 14.044C93.7436 13.876 93.4196 13.792 93.0596 13.792C92.6996 13.792 92.3756 13.876 92.0876 14.044C91.7996 14.204 91.5716 14.436 91.4036 14.74C91.2356 15.044 91.1516 15.396 91.1516 15.796C91.1516 16.196 91.2356 16.548 91.4036 16.852C91.5716 17.156 91.7996 17.392 92.0876 17.56C92.3756 17.72 92.6996 17.8 93.0596 17.8ZM103.426 11.908V14.464H107.482V15.784H103.426V19H101.866V10.6H107.998V11.908H103.426ZM109.246 12.592H110.746V19H109.246V12.592ZM110.002 11.536C109.73 11.536 109.502 11.452 109.318 11.284C109.134 11.108 109.042 10.892 109.042 10.636C109.042 10.38 109.134 10.168 109.318 10C109.502 9.824 109.73 9.736 110.002 9.736C110.274 9.736 110.502 9.82 110.686 9.988C110.87 10.148 110.962 10.352 110.962 10.6C110.962 10.864 110.87 11.088 110.686 11.272C110.51 11.448 110.282 11.536 110.002 11.536ZM112.714 10.096H114.214V19H112.714V10.096ZM122.207 15.832C122.207 15.936 122.199 16.084 122.183 16.276H117.155C117.243 16.748 117.471 17.124 117.839 17.404C118.215 17.676 118.679 17.812 119.231 17.812C119.935 17.812 120.515 17.58 120.971 17.116L121.775 18.04C121.487 18.384 121.123 18.644 120.683 18.82C120.243 18.996 119.747 19.084 119.195 19.084C118.491 19.084 117.871 18.944 117.335 18.664C116.799 18.384 116.383 17.996 116.087 17.5C115.799 16.996 115.655 16.428 115.655 15.796C115.655 15.172 115.795 14.612 116.075 14.116C116.363 13.612 116.759 13.22 117.263 12.94C117.767 12.66 118.335 12.52 118.967 12.52C119.591 12.52 120.147 12.66 120.635 12.94C121.131 13.212 121.515 13.6 121.787 14.104C122.067 14.6 122.207 15.176 122.207 15.832ZM118.967 13.72C118.487 13.72 118.079 13.864 117.743 14.152C117.415 14.432 117.215 14.808 117.143 15.28H120.779C120.715 14.816 120.519 14.44 120.191 14.152C119.863 13.864 119.455 13.72 118.967 13.72Z" fill="#26124E"/>
<defs>
<clipPath id="clip0_2133_30">
<rect width="15.3344" height="15.3344" fill="white" transform="translate(10 8.34058) rotate(-12.5825)"/>
</clipPath>
</defs>
</svg>
