<svg width="156" height="32" viewBox="0 0 156 32" fill="none" xmlns="http://www.w3.org/2000/svg">
<circle cx="5" cy="25" r="5" fill="#FF7979"/>
<rect width="11.2165" height="25.7752" rx="5.60826" transform="matrix(0.873291 -0.487198 0.488451 0.872591 5.6106 8.46466)" fill="#1F6BFF"/>
<rect width="11.2165" height="25.7752" rx="5.60826" transform="matrix(0.873291 -0.487198 0.488451 0.872591 23.5642 8.46466)" fill="#1F6BFF"/>
<path d="M53.1875 21H48.5L53.7813 5H59.7188L65 21H60.3125L56.8125 9.40625H56.6875L53.1875 21ZM52.3125 14.6875H61.125V17.9375H52.3125V14.6875ZM70.281 21V5H74.6248V11.4687H74.8435L79.656 5H84.7185L79.3123 12.125L84.8435 21H79.656L76.0623 15L74.6248 16.875V21H70.281ZM89.7476 21V5H94.0913V17.5H100.56V21H89.7476ZM110.212 21H105.525L110.806 5H116.743L122.025 21H117.337L113.837 9.40625H113.712L110.212 21ZM109.337 14.6875H118.15V17.9375H109.337V14.6875Z" fill="black"/>
<path d="M70.1477 29H68.7358V23.9091H70.2571C70.7344 23.9091 71.1429 24.0102 71.4826 24.2124C71.8223 24.4145 72.0825 24.7045 72.2631 25.0824C72.4454 25.4586 72.5357 25.9102 72.5341 26.4371C72.5324 26.9757 72.438 27.4364 72.2507 27.8192C72.0634 28.2004 71.7925 28.4929 71.4379 28.6967C71.0832 28.8989 70.6532 29 70.1477 29ZM69.0465 28.7116H70.1353C70.5894 28.7116 70.9722 28.6213 71.2837 28.4407C71.5953 28.2584 71.8306 27.9974 71.9897 27.6577C72.1504 27.3179 72.23 26.9111 72.2283 26.4371C72.2283 25.9698 72.1513 25.5696 71.9972 25.2365C71.843 24.9018 71.6185 24.6449 71.3235 24.4659C71.0302 24.2869 70.6706 24.1974 70.2447 24.1974H69.0465V28.7116ZM76.3186 29.0795C75.9739 29.0795 75.674 28.9942 75.4188 28.8235C75.1636 28.6528 74.9664 28.4192 74.8272 28.1225C74.688 27.8259 74.6184 27.4878 74.6184 27.1083C74.6184 26.7272 74.688 26.3874 74.8272 26.0891C74.968 25.7908 75.1611 25.5555 75.4064 25.3832C75.6516 25.2108 75.9317 25.1246 76.2466 25.1246C76.4603 25.1246 76.6625 25.1677 76.8531 25.2539C77.0453 25.3384 77.2144 25.4611 77.3602 25.6218C77.5077 25.7826 77.6229 25.9764 77.7057 26.2035C77.7902 26.4305 77.8325 26.6857 77.8325 26.9691V27.158H74.8098V26.8821H77.5292C77.5292 26.6054 77.4729 26.3559 77.3602 26.1339C77.2475 25.9118 77.0942 25.7353 76.9003 25.6044C76.7064 25.4735 76.4885 25.408 76.2466 25.408C75.993 25.408 75.7668 25.4793 75.5679 25.6218C75.3707 25.7627 75.2141 25.9532 75.0981 26.1935C74.9838 26.4338 74.9241 26.7023 74.9191 26.9989V27.1232C74.9191 27.4414 74.9747 27.7273 75.0857 27.9808C75.1984 28.2327 75.3591 28.4324 75.5679 28.5799C75.7767 28.7257 76.027 28.7987 76.3186 28.7987C76.5274 28.7987 76.7056 28.7638 76.8531 28.6942C77.0022 28.623 77.124 28.5368 77.2185 28.4357C77.313 28.3346 77.3842 28.2369 77.4323 28.1424L77.7082 28.2543C77.6502 28.3819 77.5599 28.5095 77.4372 28.6371C77.3163 28.763 77.1622 28.8683 76.9749 28.9528C76.7893 29.0373 76.5705 29.0795 76.3186 29.0795ZM80.3698 23.9091V29H80.0665V23.9091H80.3698ZM82.83 29V25.1818H83.1308V29H82.83ZM82.9817 24.5057C82.9154 24.5057 82.8574 24.4825 82.8077 24.4361C82.7596 24.3897 82.7356 24.3333 82.7356 24.267C82.7356 24.2008 82.7596 24.1444 82.8077 24.098C82.8557 24.0516 82.9137 24.0284 82.9817 24.0284C83.048 24.0284 83.1051 24.0516 83.1532 24.098C83.2029 24.1444 83.2278 24.2008 83.2278 24.267C83.2278 24.3333 83.2037 24.3897 83.1557 24.4361C83.1076 24.4825 83.0496 24.5057 82.9817 24.5057ZM88.3826 25.1818L87.003 29H86.6599L85.2803 25.1818H85.606L86.819 28.6097H86.8439L88.057 25.1818H88.3826ZM91.8726 29.0795C91.5279 29.0795 91.2279 28.9942 90.9727 28.8235C90.7175 28.6528 90.5203 28.4192 90.3811 28.1225C90.2419 27.8259 90.1723 27.4878 90.1723 27.1083C90.1723 26.7272 90.2419 26.3874 90.3811 26.0891C90.522 25.7908 90.715 25.5555 90.9603 25.3832C91.2056 25.2108 91.4856 25.1246 91.8005 25.1246C92.0143 25.1246 92.2165 25.1677 92.407 25.2539C92.5993 25.3384 92.7683 25.4611 92.9141 25.6218C93.0616 25.7826 93.1768 25.9764 93.2597 26.2035C93.3442 26.4305 93.3864 26.6857 93.3864 26.9691V27.158H90.3637V26.8821H93.0832C93.0832 26.6054 93.0268 26.3559 92.9141 26.1339C92.8014 25.9118 92.6482 25.7353 92.4543 25.6044C92.2604 25.4735 92.0424 25.408 91.8005 25.408C91.5469 25.408 91.3207 25.4793 91.1219 25.6218C90.9247 25.7627 90.7681 25.9532 90.6521 26.1935C90.5377 26.4338 90.4781 26.7023 90.4731 26.9989V27.1232C90.4731 27.4414 90.5286 27.7273 90.6396 27.9808C90.7523 28.2327 90.9131 28.4324 91.1219 28.5799C91.3307 28.7257 91.5809 28.7987 91.8726 28.7987C92.0814 28.7987 92.2595 28.7638 92.407 28.6942C92.5562 28.623 92.678 28.5368 92.7724 28.4357C92.8669 28.3346 92.9382 28.2369 92.9862 28.1424L93.2621 28.2543C93.2041 28.3819 93.1138 28.5095 92.9912 28.6371C92.8702 28.763 92.7161 28.8683 92.5288 28.9528C92.3432 29.0373 92.1245 29.0795 91.8726 29.0795ZM95.6205 29V25.1818H95.9163V25.7784H95.9436C96.0265 25.5829 96.1665 25.4263 96.3637 25.3086C96.5609 25.1893 96.7855 25.1296 97.0374 25.1296C97.0639 25.1296 97.0904 25.1296 97.1169 25.1296C97.1434 25.1296 97.1683 25.1304 97.1915 25.1321V25.4379C97.1716 25.4362 97.1476 25.4337 97.1194 25.4304C97.0929 25.4254 97.0597 25.4229 97.02 25.4229C96.8078 25.4229 96.6189 25.4685 96.4532 25.5597C96.2891 25.6508 96.1599 25.7768 96.0654 25.9375C95.971 26.0966 95.9237 26.2789 95.9237 26.4844V29H95.6205ZM99.556 30.4318C99.4798 30.4318 99.4044 30.4235 99.3298 30.407C99.2552 30.3904 99.1881 30.3688 99.1285 30.3423L99.218 30.0763C99.3737 30.136 99.5146 30.1576 99.6405 30.141C99.7682 30.1244 99.8808 30.0664 99.9786 29.967C100.076 29.8675 100.159 29.7217 100.227 29.5295L100.401 29.0522L99.0017 25.1818H99.3273L100.54 28.6097H100.565L101.778 25.1818H102.104L100.493 29.6488C100.432 29.8211 100.355 29.9653 100.262 30.0813C100.169 30.1973 100.063 30.2843 99.9438 30.3423C99.8262 30.402 99.6969 30.4318 99.556 30.4318Z" fill="black"/>
<line x1="48.9822" y1="27.0001" x2="63.0178" y2="27.0001" stroke="black"/>
<line x1="107" y1="26.5" x2="121.036" y2="26.5" stroke="black"/>
</svg>
