<svg width="240" height="41" viewBox="0 0 240 41" fill="none" xmlns="http://www.w3.org/2000/svg">
<path d="M69.2354 13.5312C69.2354 12.3594 69.1084 11.4316 68.8545 10.748C68.6006 10.0645 68.1807 9.54688 67.5947 9.19531C67.0088 8.84375 66.2373 8.61914 65.2803 8.52148C64.333 8.42383 63.1562 8.375 61.75 8.375H55.1729C53.9229 8.375 52.8682 8.41406 52.0088 8.49219C51.1592 8.56055 50.4561 8.70703 49.8994 8.93164C49.3428 9.15625 48.9131 9.47852 48.6104 9.89844C48.3076 10.3184 48.0879 10.875 47.9512 11.5684C47.8145 12.2617 47.7363 13.1162 47.7168 14.1318C47.6973 15.1377 47.6875 16.3438 47.6875 17.75C47.6875 19.1562 47.6973 20.3672 47.7168 21.3828C47.7461 22.3887 47.8291 23.2383 47.9658 23.9316C48.1025 24.625 48.3174 25.1816 48.6104 25.6016C48.9131 26.0215 49.3428 26.3438 49.8994 26.5684C50.4561 26.793 51.1592 26.9443 52.0088 27.0225C52.8682 27.0908 53.9229 27.125 55.1729 27.125H61.75C62.8438 27.125 63.7861 27.0957 64.5771 27.0371C65.3682 26.9785 66.042 26.8711 66.5986 26.7148C67.1553 26.5586 67.6045 26.3438 67.9463 26.0703C68.2881 25.7969 68.5518 25.4551 68.7373 25.0449C68.9326 24.625 69.0645 24.127 69.1328 23.5508C69.2012 22.9648 69.2354 22.2812 69.2354 21.5H72.0479C72.0479 22.4375 71.9893 23.2871 71.8721 24.0488C71.7549 24.8008 71.5449 25.4746 71.2422 26.0703C70.9492 26.6562 70.5537 27.1641 70.0557 27.5938C69.5576 28.0234 68.9277 28.3799 68.166 28.6631C67.4043 28.9365 66.4961 29.1367 65.4414 29.2637C64.3867 29.4004 63.1562 29.4688 61.75 29.4688H55.1729C53.4541 29.4688 52.0039 29.3613 50.8223 29.1465C49.6504 28.9414 48.6836 28.6289 47.9219 28.209C47.1602 27.7793 46.5693 27.2422 46.1494 26.5977C45.7393 25.9531 45.4365 25.1963 45.2412 24.3271C45.0557 23.458 44.9482 22.4766 44.9189 21.3828C44.8896 20.2891 44.875 19.0781 44.875 17.75C44.875 16.4219 44.8896 15.2109 44.9189 14.1172C44.9482 13.0234 45.0557 12.042 45.2412 11.1729C45.4365 10.3037 45.7393 9.54688 46.1494 8.90234C46.5693 8.25781 47.1602 7.72559 47.9219 7.30566C48.6836 6.87598 49.6504 6.55859 50.8223 6.35352C52.0039 6.13867 53.4541 6.03125 55.1729 6.03125H61.75C63.1562 6.03125 64.3867 6.09961 65.4414 6.23633C66.4961 6.36328 67.4043 6.56348 68.166 6.83691C68.9277 7.10059 69.5576 7.4375 70.0557 7.84766C70.5537 8.25781 70.9492 8.74121 71.2422 9.29785C71.5449 9.85449 71.7549 10.4844 71.8721 11.1875C71.9893 11.8906 72.0479 12.6719 72.0479 13.5312H69.2354ZM100.188 6.5H103V29H100.188V18.6875H79.5625V29H76.75V6.5H79.5625V16.3438H100.188V6.5ZM130.656 23.8438H112.844L110.031 29H106.75L119.875 6.5H123.625L136.75 29H133.469L130.656 23.8438ZM129.25 21.5L121.75 8.375L114.25 21.5H129.25ZM140.5 29V6.5H159.265C160.671 6.5 161.804 6.61719 162.663 6.85156C163.522 7.07617 164.182 7.41309 164.641 7.8623C165.109 8.30176 165.422 8.85352 165.578 9.51758C165.734 10.1816 165.812 10.9434 165.812 11.8027C165.812 12.4277 165.759 12.9795 165.651 13.458C165.544 13.9365 165.402 14.3516 165.227 14.7031C165.051 15.0547 164.851 15.3525 164.626 15.5967C164.401 15.8311 164.172 16.0264 163.938 16.1826C163.391 16.5537 162.766 16.7637 162.062 16.8125C162.941 16.8613 163.723 17.0762 164.406 17.457C164.699 17.623 164.982 17.833 165.256 18.0869C165.539 18.3311 165.788 18.6387 166.003 19.0098C166.228 19.3711 166.408 19.8008 166.545 20.2988C166.682 20.7871 166.75 21.3535 166.75 21.998C166.75 22.7793 166.711 23.4971 166.633 24.1514C166.564 24.7959 166.418 25.377 166.193 25.8945C165.969 26.4121 165.646 26.8662 165.227 27.2568C164.807 27.6475 164.245 27.9746 163.542 28.2383C162.849 28.4922 161.994 28.6826 160.979 28.8096C159.973 28.9365 158.767 29 157.36 29H140.5ZM156.423 26.6562C157.517 26.6562 158.464 26.6416 159.265 26.6123C160.065 26.5732 160.744 26.5 161.301 26.3926C161.857 26.2754 162.307 26.1143 162.648 25.9092C162.99 25.6943 163.254 25.416 163.439 25.0742C163.635 24.7227 163.767 24.2979 163.835 23.7998C163.903 23.3018 163.938 22.7012 163.938 21.998C163.938 21.4512 163.903 20.9775 163.835 20.5771C163.767 20.167 163.635 19.8252 163.439 19.5518C163.254 19.2686 162.99 19.0439 162.648 18.8779C162.307 18.7021 161.857 18.5654 161.301 18.4678C160.744 18.3701 160.065 18.3066 159.265 18.2773C158.464 18.2383 157.517 18.2188 156.423 18.2188H143.312V26.6562H156.423ZM156.423 15.875C157.38 15.875 158.205 15.8555 158.898 15.8164C159.592 15.7773 160.183 15.7041 160.671 15.5967C161.159 15.4893 161.555 15.3428 161.857 15.1572C162.16 14.9619 162.395 14.7129 162.561 14.4102C162.736 14.1074 162.854 13.7461 162.912 13.3262C162.971 12.8965 163 12.3887 163 11.8027C163 11.1777 162.932 10.6699 162.795 10.2793C162.658 9.88867 162.414 9.59082 162.062 9.38574C161.711 9.1709 161.232 9.0293 160.627 8.96094C160.031 8.88281 159.265 8.84375 158.327 8.84375H143.312V15.875H156.423ZM171.438 6.5H174.25V29H171.438V6.5ZM179.875 29V6.5H198.64C200.046 6.5 201.179 6.61719 202.038 6.85156C202.897 7.07617 203.557 7.41309 204.016 7.8623C204.484 8.30176 204.797 8.85352 204.953 9.51758C205.109 10.1816 205.188 10.9434 205.188 11.8027C205.188 12.4277 205.134 12.9795 205.026 13.458C204.919 13.9365 204.777 14.3516 204.602 14.7031C204.426 15.0547 204.226 15.3525 204.001 15.5967C203.776 15.8311 203.547 16.0264 203.312 16.1826C202.766 16.5537 202.141 16.7637 201.438 16.8125C202.316 16.8613 203.098 17.0762 203.781 17.457C204.074 17.623 204.357 17.833 204.631 18.0869C204.914 18.3311 205.163 18.6387 205.378 19.0098C205.603 19.3711 205.783 19.8008 205.92 20.2988C206.057 20.7871 206.125 21.3535 206.125 21.998C206.125 22.7793 206.086 23.4971 206.008 24.1514C205.939 24.7959 205.793 25.377 205.568 25.8945C205.344 26.4121 205.021 26.8662 204.602 27.2568C204.182 27.6475 203.62 27.9746 202.917 28.2383C202.224 28.4922 201.369 28.6826 200.354 28.8096C199.348 28.9365 198.142 29 196.735 29H179.875ZM195.798 26.6562C196.892 26.6562 197.839 26.6416 198.64 26.6123C199.44 26.5732 200.119 26.5 200.676 26.3926C201.232 26.2754 201.682 26.1143 202.023 25.9092C202.365 25.6943 202.629 25.416 202.814 25.0742C203.01 24.7227 203.142 24.2979 203.21 23.7998C203.278 23.3018 203.312 22.7012 203.312 21.998C203.312 21.4512 203.278 20.9775 203.21 20.5771C203.142 20.167 203.01 19.8252 202.814 19.5518C202.629 19.2686 202.365 19.0439 202.023 18.8779C201.682 18.7021 201.232 18.5654 200.676 18.4678C200.119 18.3701 199.44 18.3066 198.64 18.2773C197.839 18.2383 196.892 18.2188 195.798 18.2188H182.688V26.6562H195.798ZM195.798 15.875C196.755 15.875 197.58 15.8555 198.273 15.8164C198.967 15.7773 199.558 15.7041 200.046 15.5967C200.534 15.4893 200.93 15.3428 201.232 15.1572C201.535 14.9619 201.77 14.7129 201.936 14.4102C202.111 14.1074 202.229 13.7461 202.287 13.3262C202.346 12.8965 202.375 12.3887 202.375 11.8027C202.375 11.1777 202.307 10.6699 202.17 10.2793C202.033 9.88867 201.789 9.59082 201.438 9.38574C201.086 9.1709 200.607 9.0293 200.002 8.96094C199.406 8.88281 198.64 8.84375 197.702 8.84375H182.688V15.875H195.798ZM232.844 23.8438H215.031L212.219 29H208.938L222.062 6.5H225.812L238.938 29H235.656L232.844 23.8438ZM231.438 21.5L223.938 8.375L216.438 21.5H231.438Z" fill="#160647"/>
<path d="M30.8426 2.76861C33.4309 1.31431 36.5098 2.33326 37.7195 5.04451C38.9292 7.75576 37.8116 11.1326 35.2234 12.5869L15.3466 23.7552C12.7583 25.2095 9.67944 24.1906 8.46973 21.4793C7.26002 18.7681 8.37758 15.3912 10.9659 13.9369L30.8426 2.76861Z" fill="url(#paint0_linear_1_9)"/>
<path d="M31.6534 16.7122C34.2417 15.2579 37.3206 16.2768 38.5303 18.9881C39.74 21.6993 38.6224 25.0762 36.0341 26.5305L16.1574 37.6988C13.5691 39.1531 10.4902 38.1342 9.2805 35.4229C8.0708 32.7117 9.18836 29.3348 11.7767 27.8805L31.6534 16.7122Z" fill="url(#paint1_linear_1_9)"/>
<defs>
<linearGradient id="paint0_linear_1_9" x1="37.7195" y1="5.04451" x2="7.21048" y2="18.6571" gradientUnits="userSpaceOnUse">
<stop stop-color="#4B5AF0"/>
<stop offset="1" stop-color="#BB4BF0"/>
</linearGradient>
<linearGradient id="paint1_linear_1_9" x1="38.5303" y1="18.9881" x2="8.02126" y2="32.6006" gradientUnits="userSpaceOnUse">
<stop stop-color="#611EEF"/>
<stop offset="1" stop-color="#4B5AF0"/>
</linearGradient>
</defs>
</svg>
