<?xml version="1.0" standalone="no"?>
<!DOCTYPE svg PUBLIC "-//W3C//DTD SVG 20010904//EN"
 "http://www.w3.org/TR/2001/REC-SVG-20010904/DTD/svg10.dtd">
<svg version="1.0" xmlns="http://www.w3.org/2000/svg"
 width="762.000000pt" height="327.000000pt" viewBox="0 0 762.000000 327.000000"
 preserveAspectRatio="xMidYMid meet">

<g transform="translate(0.000000,327.000000) scale(0.100000,-0.100000)"
fill="#000000" stroke="none">
<path d="M1368 2161 c-106 -22 -183 -115 -182 -221 1 -59 11 -84 99 -235 264
-456 289 -497 324 -525 119 -99 307 -39 357 114 29 87 26 95 -244 561 -64 110
-126 214 -139 231 -42 56 -139 90 -215 75z"/>
<path d="M2045 2161 c-119 -30 -194 -127 -183 -240 4 -35 29 -90 108 -231 137
-246 266 -458 298 -494 103 -111 297 -74 363 69 24 51 24 129 0 180 -37 81
-355 621 -385 653 -49 53 -135 79 -201 63z"/>
<path d="M3047 2073 c-3 -5 -64 -192 -137 -418 -73 -225 -135 -416 -137 -422
-4 -10 26 -13 130 -13 l134 0 24 93 24 92 127 3 c147 3 136 11 162 -110 l17
-78 135 0 c75 0 134 4 134 9 0 10 -139 464 -216 709 l-46 142 -173 0 c-96 0
-176 -3 -178 -7z m222 -338 c23 -83 41 -154 41 -158 0 -4 -43 -7 -96 -7 -86 0
-95 2 -90 18 3 9 19 69 36 132 42 158 51 183 60 173 5 -4 27 -76 49 -158z"/>
<path d="M3760 1650 l0 -430 130 0 130 0 1 113 c3 268 4 300 15 304 6 2 55
-81 109 -184 54 -104 104 -198 112 -210 13 -22 19 -23 154 -23 130 0 141 1
135 18 -13 33 -189 338 -223 384 -35 48 -35 56 -2 93 17 19 219 352 219 361 0
2 -62 4 -138 4 l-138 0 -15 -27 c-9 -16 -55 -99 -104 -185 -48 -87 -93 -162
-100 -168 -14 -12 -25 107 -25 277 l0 103 -130 0 -130 0 0 -430z"/>
<path d="M4675 2067 c-3 -6 -4 -199 -3 -427 l3 -415 313 -3 312 -2 0 95 0 95
-180 0 -180 0 0 335 0 335 -130 0 c-95 0 -132 -3 -135 -13z"/>
<path d="M5681 2058 c-5 -13 -66 -201 -136 -418 -70 -217 -130 -401 -133 -407
-3 -10 27 -13 132 -13 l136 0 6 28 c3 15 13 56 23 92 l16 65 132 3 131 3 23
-96 23 -95 134 0 134 0 -6 28 c-7 29 -126 417 -207 675 l-50 157 -175 0 c-172
0 -175 0 -183 -22z m229 -323 c22 -82 40 -153 40 -157 0 -4 -43 -8 -95 -8 -52
0 -95 2 -95 4 0 3 74 270 86 310 10 32 22 4 64 -149z"/>
<path d="M2980 945 l0 -95 43 0 c49 1 72 15 87 56 26 68 -19 134 -91 134 l-39
0 0 -95z m99 59 c43 -54 12 -144 -50 -144 l-29 0 0 85 0 85 29 0 c20 0 36 -9
50 -26z"/>
<path d="M3172 943 l3 -98 44 -3 c24 -2 49 2 54 7 8 8 -3 11 -36 11 l-47 0 0
40 c0 39 1 40 35 40 19 0 35 5 35 10 0 6 -16 10 -35 10 -33 0 -35 2 -35 34 0
34 1 35 48 39 46 3 46 3 -11 5 l-58 2 3 -97z"/>
<path d="M3344 945 l1 -100 33 -3 c55 -5 75 11 22 17 l-45 6 -6 90 -6 90 1
-100z"/>
<path d="M3490 946 c0 -57 4 -96 10 -96 6 0 10 36 10 89 0 50 -4 93 -10 96 -6
4 -10 -28 -10 -89z"/>
<path d="M3550 1034 c0 -30 59 -179 70 -179 9 0 25 35 42 90 32 103 31 98 19
91 -4 -3 -18 -41 -31 -86 -12 -44 -26 -80 -30 -80 -4 0 -17 35 -30 78 -20 70
-40 112 -40 86z"/>
<path d="M3732 943 l3 -96 47 -4 c26 -2 49 0 53 6 4 7 -10 11 -39 11 l-46 0 0
40 c0 39 1 40 35 40 19 0 35 5 35 10 0 6 -16 10 -35 10 -33 0 -35 2 -35 34 0
34 1 35 48 39 46 3 46 3 -11 5 l-58 2 3 -97z"/>
<path d="M3902 943 c0 -54 3 -82 5 -63 3 19 9 40 14 46 5 6 4 15 -2 21 -6 6
-9 26 -7 44 3 30 7 34 36 37 62 6 85 -46 34 -75 l-29 -17 23 -33 c12 -19 25
-39 27 -46 2 -7 7 -9 11 -6 4 4 -2 22 -14 41 l-20 35 20 18 c26 23 26 71 1 85
-11 5 -38 10 -60 10 l-41 0 2 -97z"/>
<path d="M4060 1032 c0 -7 11 -35 25 -62 14 -27 25 -65 25 -85 0 -19 5 -35 10
-35 6 0 10 18 10 40 0 24 11 62 26 91 14 28 23 53 20 56 -2 3 -17 -19 -32 -48
l-26 -53 -29 54 c-15 30 -28 49 -29 42z"/>
<path d="M1462 943 c263 -2 693 -2 955 0 263 1 48 2 -477 2 -525 0 -740 -1
-478 -2z"/>
<path d="M4752 943 c263 -2 693 -2 956 0 262 1 47 2 -478 2 -525 0 -740 -1
-478 -2z"/>
</g>
</svg>
