<svg width="36" height="36" viewBox="0 0 36 36" fill="none" xmlns="http://www.w3.org/2000/svg">
<rect width="36" height="36" rx="8" fill="#FFF2F9"/>
<path d="M27.9999 21.184V14C27.9983 12.6744 27.471 11.4036 26.5337 10.4662C25.5963 9.52887 24.3255 9.00158 22.9999 8.99999H12.9999C11.6743 9.00158 10.4035 9.52887 9.46612 10.4662C8.52878 11.4036 8.00149 12.6744 7.9999 14V21.184C7.33322 21.4188 6.77115 21.882 6.41326 22.4915C6.05537 23.101 5.92474 23.8176 6.04451 24.5142C6.16428 25.2108 6.52673 25.8425 7.06766 26.2975C7.60858 26.7525 8.29307 27.0013 8.9999 27H26.9999C27.7067 27.0013 28.3912 26.7525 28.9321 26.2975C29.4731 25.8425 29.8355 25.2108 29.9553 24.5142C30.0751 23.8176 29.9444 23.101 29.5865 22.4915C29.2286 21.882 28.6666 21.4188 27.9999 21.184V21.184ZM12.9999 11H22.9999C23.7955 11 24.5586 11.3161 25.1212 11.8787C25.6838 12.4413 25.9999 13.2043 25.9999 14V21H21.8489C21.558 20.9998 21.2706 21.063 21.0067 21.1853C20.7428 21.3076 20.5088 21.486 20.3209 21.708L20.0739 22H15.9249L15.6789 21.708C15.491 21.486 15.257 21.3076 14.993 21.1853C14.7291 21.063 14.4418 20.9998 14.1509 21H9.9999V14C9.9999 13.2043 10.316 12.4413 10.8786 11.8787C11.4412 11.3161 12.2042 11 12.9999 11V11ZM26.9999 25H8.9999C8.73468 25 8.48033 24.8946 8.29279 24.7071C8.10525 24.5196 7.9999 24.2652 7.9999 24C7.9999 23.7348 8.10525 23.4804 8.29279 23.2929C8.48033 23.1053 8.73468 23 8.9999 23H14.1519L14.3979 23.292C14.5857 23.5139 14.8196 23.6922 15.0833 23.8144C15.347 23.9367 15.6342 24 15.9249 24H20.0739C20.3648 24.0002 20.6521 23.9369 20.916 23.8147C21.18 23.6924 21.414 23.514 21.6019 23.292L21.8489 23H26.9999C27.2651 23 27.5195 23.1053 27.707 23.2929C27.8945 23.4804 27.9999 23.7348 27.9999 24C27.9999 24.2652 27.8945 24.5196 27.707 24.7071C27.5195 24.8946 27.2651 25 26.9999 25Z" fill="#BB1D6A"/>
</svg>
